<svg xmlns="http://www.w3.org/2000/svg" xmlns:xlink="http://www.w3.org/1999/xlink" width="1080" zoomAndPan="magnify" viewBox="0 0 810 809.999993" height="1080" preserveAspectRatio="xMidYMid meet" version="1.0"><defs><g/><clipPath id="44eec47633"><path d="M 0 172.039062 L 809.25 172.039062 L 809.25 670 L 0 670 Z M 0 172.039062 " clip-rule="nonzero"/></clipPath></defs><g clip-path="url(#44eec47633)"><path fill="#3c78da" d="M 788.820312 204.324219 C 803.128906 189.878906 806.296875 179.789062 809.386719 172.21875 L 801.582031 176.773438 C 756.714844 202.960938 699.160156 203.242188 665.644531 205.007812 C 632.316406 206.757812 588.234375 228.890625 583.898438 231.105469 C 503.832031 253.488281 510.339844 288.488281 510.65625 289.96875 L 511.0625 291.863281 C 513.125 292.355469 514.226562 292.519531 516.195312 293.671875 C 518.648438 296.355469 520.710938 298.289062 523.5 300.761719 C 538.929688 321.957031 545.246094 371.476562 512.195312 390.707031 C 499.59375 329.085938 473.675781 284.6875 441.082031 284.6875 C 355.21875 284.6875 360.160156 284.402344 355.304688 285.371094 C 335.3125 286.15625 316.886719 306.890625 303.316406 343.988281 C 298.5 357.15625 294.542969 371.542969 291.425781 386.710938 C 265.011719 365.328125 271.46875 320.617188 285.921875 300.761719 C 288.710938 298.289062 290.773438 296.355469 293.230469 293.671875 C 295.195312 292.519531 296.300781 292.355469 298.363281 291.863281 L 298.765625 289.96875 C 299.082031 288.488281 305.589844 253.488281 225.523438 231.105469 C 221.1875 228.890625 177.109375 206.757812 143.777344 205.007812 C 110.265625 203.242188 52.707031 202.960938 7.839844 176.773438 L 0.0351562 172.21875 C 3.128906 179.789062 6.292969 189.878906 20.605469 204.324219 C 26.105469 209.878906 33.757812 216.355469 43.964844 222.519531 C 29.554688 218.117188 26.21875 216.214844 17.210938 212.007812 L 21.21875 219.929688 C 25.578125 228.558594 39.441406 244.648438 62.164062 258.117188 C 55.191406 255.800781 53.105469 254.882812 44.875 251.601562 C 47.765625 257.132812 53.972656 272.964844 83.054688 290.703125 C 71.394531 286.875 66.917969 284.960938 57.804688 281.3125 L 62.304688 289.027344 C 62.546875 289.445312 68.429688 299.390625 82.195312 311.175781 C 87.816406 315.988281 95.300781 321.53125 104.78125 326.871094 C 91.261719 323.425781 86.828125 322.085938 78.644531 319.722656 L 82.289062 326.238281 C 88.195312 336.792969 105.5 352.734375 131.402344 362.5 C 114.757812 361.511719 111.4375 361.144531 100.3125 360.164062 C 106.417969 365.179688 120.183594 377.78125 145.554688 386.558594 C 136.910156 386.089844 135.066406 385.679688 124.785156 384.199219 L 131.71875 390.824219 C 141.890625 400.53125 162.738281 412.375 185.628906 417.277344 C 165.636719 419.535156 165.480469 419.140625 154.746094 418.9375 L 162.121094 424.613281 C 163.019531 425.304688 180.328125 438.324219 208.738281 439.507812 L 185.929688 447.472656 L 192.835938 450.648438 C 193.789062 451.089844 209.921875 458.375 227.101562 458.109375 L 206.101562 470.550781 L 213.28125 472.386719 C 221.136719 474.394531 235.261719 474.867188 248.6875 471.636719 L 232.980469 482.992188 L 239.621094 484.484375 C 240.558594 484.695312 256.402344 488.105469 272.667969 482.53125 L 260.375 496.207031 L 266.515625 496.730469 C 267.058594 496.777344 274.054688 497.277344 282.988281 493.785156 C 283.140625 498.449219 283.359375 503.097656 283.640625 507.722656 L 281.835938 511.355469 L 283.871094 511.246094 C 286.511719 549.8125 293.667969 586.574219 305.183594 615.832031 C 309.25 630.542969 316.550781 646.851562 329.628906 656.425781 C 337.703125 664.378906 346.40625 668.59375 355.4375 668.722656 C 360.105469 669.636719 355.300781 669.382812 441.082031 669.382812 C 464.152344 669.382812 485.15625 646.976562 500.230469 606.285156 C 510.21875 579.316406 516.78125 546.203125 519.332031 510.703125 C 521.582031 511.101562 522.234375 511.070312 527.585938 511.355469 L 520.140625 496.363281 C 520.214844 494.535156 520.28125 492.703125 520.335938 490.863281 C 531.996094 497.519531 542.246094 496.789062 542.90625 496.730469 L 549.046875 496.207031 L 536.753906 482.53125 C 553.023438 488.105469 568.863281 484.695312 569.800781 484.484375 L 576.441406 482.992188 L 560.738281 471.636719 C 574.160156 474.867188 588.285156 474.394531 596.140625 472.386719 L 603.324219 470.550781 L 582.320312 458.109375 C 599.503906 458.375 615.632812 451.089844 616.585938 450.648438 L 623.492188 447.472656 L 600.6875 439.507812 C 629.09375 438.324219 646.402344 425.304688 647.300781 424.613281 L 654.679688 418.9375 C 643.945312 419.140625 643.785156 419.535156 623.796875 417.277344 C 646.683594 412.375 667.535156 400.53125 677.703125 390.824219 L 684.636719 384.199219 C 674.355469 385.679688 672.511719 386.089844 663.871094 386.558594 C 689.238281 377.78125 703.003906 365.179688 709.109375 360.164062 C 697.984375 361.144531 694.667969 361.511719 678.019531 362.5 C 703.921875 352.734375 721.226562 336.792969 727.132812 326.238281 L 730.777344 319.722656 C 722.59375 322.085938 718.160156 323.425781 704.640625 326.871094 C 714.125 321.53125 721.605469 315.988281 727.226562 311.175781 C 740.992188 299.390625 746.875 289.445312 747.121094 289.027344 L 751.621094 281.3125 C 742.507812 284.960938 738.027344 286.875 726.367188 290.703125 C 755.453125 272.964844 761.65625 257.132812 764.550781 251.601562 C 756.316406 254.882812 754.230469 255.800781 747.257812 258.117188 C 769.984375 244.648438 783.847656 228.558594 788.207031 219.929688 L 792.210938 212.007812 C 783.203125 216.214844 779.871094 218.117188 765.457031 222.519531 C 775.667969 216.355469 783.316406 209.878906 788.820312 204.324219 Z M 665.5 392.644531 L 665.476562 392.613281 C 665.578125 392.609375 665.566406 392.597656 665.5 392.644531 Z M 623.117188 221.074219 C 651.394531 211.035156 664.023438 211.203125 675.527344 210.679688 C 704.039062 209.371094 744.542969 207.507812 781.507812 193.15625 C 777.277344 196.753906 773.644531 199.492188 769.292969 202.546875 C 772.957031 201.140625 776.714844 199.640625 781.90625 197.15625 C 772.609375 205.597656 763.113281 212.066406 752.4375 217.921875 C 762.164062 214.023438 771.449219 209.484375 781.65625 202.667969 C 769.503906 214.058594 750.363281 226.675781 721.300781 233.925781 L 721.320312 234.007812 C 705.476562 237.742188 686.351562 238.898438 669.605469 240.011719 C 676.683594 238.925781 678.472656 238.632812 689.902344 236.820312 C 677.375 237.628906 654.554688 239.175781 618.933594 240.640625 C 645.515625 230.421875 665.789062 223.324219 691.128906 221.765625 C 709.371094 220.945312 727.132812 224.335938 744.332031 215.296875 C 730.949219 221.433594 717.804688 220.375 703.152344 219.402344 C 681.503906 217.976562 665.167969 218.328125 615.429688 234.433594 C 613.082031 234.304688 608.328125 234.195312 602.257812 234.824219 C 607.910156 229.90625 613.746094 225.621094 623.117188 221.074219 Z M 593.375 244.542969 C 597.800781 242.910156 602.441406 241.925781 606.957031 240.621094 C 608.617188 240.53125 610.117188 240.488281 611.398438 240.484375 C 607.195312 246.917969 602.085938 252.457031 597.113281 257.003906 C 587.253906 263.019531 586.496094 262.441406 575.875 266.074219 C 571.96875 267.40625 568.039062 268.789062 564.039062 269.847656 C 563.617188 269.746094 563.1875 269.707031 562.75 269.738281 L 596.46875 248.425781 L 557.402344 266.582031 C 567.765625 256.839844 580.769531 249.195312 593.375 244.542969 Z M 517.9375 427.964844 C 522.152344 431.648438 528.628906 435.335938 537.117188 436.308594 C 529.199219 433.265625 523.058594 428.023438 519.410156 420.273438 C 523.4375 419.691406 527.636719 419.179688 533.445312 421.804688 C 540.355469 429.414062 545.097656 439.140625 547.382812 444.476562 C 533.679688 444.25 523.765625 437.683594 518.453125 433.042969 C 518.289062 431.34375 518.117188 429.648438 517.9375 427.964844 Z M 539.71875 418.980469 C 537.644531 417.511719 536.117188 415.542969 535.484375 413.050781 C 543.785156 415.308594 540.144531 414.316406 554.007812 418.082031 C 538.746094 408.523438 546.371094 413.300781 537.054688 407.464844 C 539.90625 407.144531 542.292969 407.109375 547.449219 408.355469 C 554.566406 412.753906 560.910156 417.839844 564.960938 421.320312 C 553.601562 422.597656 543.445312 420.078125 539.71875 418.980469 Z M 547.804688 401.417969 C 545.679688 400.203125 543.5 399.058594 541.292969 398.035156 C 551.199219 397.175781 559.304688 396.964844 568.195312 397.054688 C 558.925781 395.132812 550.332031 393.703125 539.988281 392.640625 C 546.515625 389.753906 552.882812 388.480469 561.53125 388.984375 C 572.007812 391.929688 579.207031 396.832031 583.070312 400.03125 C 563.71875 406.613281 549.140625 401.886719 547.804688 401.417969 Z M 566.734375 382.792969 C 565.75 382.660156 560.203125 383.285156 555.429688 378.777344 C 566.132812 378.714844 574.546875 377.90625 583.867188 376.476562 C 575.367188 375.949219 567.121094 375.027344 557.484375 373.046875 C 562.023438 371.050781 566.445312 369.199219 574.351562 368.589844 C 586.667969 370.039062 594.132812 373.597656 597.957031 376.019531 C 587.925781 381.027344 573.972656 382.476562 566.734375 382.792969 Z M 588.039062 365.042969 C 581.84375 363.234375 573.804688 361.871094 563.597656 361.808594 C 572.011719 361.148438 580.503906 360.835938 587 360.808594 C 577.769531 359.113281 566.445312 357.570312 555.453125 356.660156 C 560.15625 354.046875 563.933594 352.421875 570.863281 352.082031 C 585.964844 353.640625 598.625 357.246094 605.484375 359.515625 C 598.613281 363.25 590.304688 364.699219 588.039062 365.042969 Z M 577.996094 346.570312 C 572.851562 346.09375 567.019531 344.726562 562.96875 341.550781 L 591.035156 338.988281 L 561 335.222656 C 561.027344 335.003906 561.054688 334.78125 561.082031 334.5625 C 562.667969 333.886719 566.839844 331.316406 574.914062 330.015625 C 591.589844 331.386719 604.421875 335.773438 611.128906 338.546875 C 597.363281 345.625 582.671875 346.484375 577.996094 346.570312 Z M 588.503906 319.683594 C 584.902344 320.289062 581.140625 320.265625 577.496094 320.707031 C 567.140625 321.96875 564.519531 321.085938 561.289062 320.171875 C 561.265625 319.878906 561.242188 319.585938 561.214844 319.289062 L 596.410156 310.730469 L 562.082031 312.730469 C 567.804688 309.285156 571.332031 307.195312 577.054688 305.136719 C 593.613281 303.675781 605.769531 305.714844 612.070312 307.257812 C 604.875 313.15625 592.234375 319.054688 588.503906 319.683594 Z M 596.359375 289.480469 C 594.402344 290.464844 592.359375 291.441406 590.265625 292.101562 C 579.054688 295.628906 572.710938 298 561.253906 298.316406 C 562.34375 296.832031 563.15625 295.460938 563.582031 294.195312 C 575.664062 288.945312 587.644531 284.277344 598.210938 280.578125 C 586.875 282.433594 573.824219 285.054688 560.5625 288.265625 C 559.449219 288 558.15625 288.042969 556.746094 288.253906 C 563.15625 284.390625 572.976562 278.882812 584.46875 276.191406 C 597.914062 273.640625 608.828125 273.148438 615.113281 273.140625 C 608.121094 281.4375 598.285156 288.511719 596.359375 289.480469 Z M 536.878906 313.417969 C 541.519531 318.921875 543.308594 322.949219 544.417969 328.007812 C 543.902344 321.808594 542.109375 315.375 533 304.523438 C 529.976562 298.699219 525.761719 292.679688 520.339844 289.054688 C 520.285156 288.976562 519.933594 288.4375 519.882812 288.355469 C 520.28125 279.230469 525.289062 269.683594 535.417969 263.203125 C 532.917969 264.136719 528.425781 265.726562 523.058594 270.746094 C 530.144531 261.476562 546.214844 248.472656 582.597656 237.863281 C 581.480469 246.117188 566.691406 246.226562 551.203125 261.558594 C 544.050781 267.433594 537.410156 275.96875 533.070312 287.03125 C 533.992188 285.636719 536.3125 282.019531 539.863281 278.316406 C 538.617188 281.664062 538.832031 281.414062 536.714844 296.1875 L 544.269531 284.675781 C 545.214844 283.242188 550.175781 280.660156 554.828125 278.660156 C 545.355469 288.5625 543.257812 290.714844 543.75 293.335938 C 543.933594 294.308594 544.496094 295.132812 545.335938 295.671875 C 547.75 297.210938 551.386719 295.625 556.398438 294.554688 C 555.027344 296.4375 552.800781 299.007812 550.433594 301.382812 C 545.496094 301.929688 541.394531 303.019531 536.933594 304.785156 C 541.535156 304.863281 545.527344 305.378906 550.019531 306.691406 L 553.132812 307.84375 C 556.289062 321.402344 555.816406 331.664062 554.113281 339.289062 C 550.496094 338.105469 546.738281 337.03125 543.878906 336.3125 C 546.539062 338.292969 549.800781 340.910156 552.929688 343.640625 C 550.402344 351.53125 546.902344 355.625 546.132812 357.945312 C 544.667969 362.367188 549.203125 365.304688 552.726562 367.617188 C 549.109375 369.546875 545.683594 371.105469 545.296875 374.050781 C 545.144531 375.21875 545.53125 376.367188 546.367188 377.253906 C 546.019531 378.324219 544.296875 380.421875 543.464844 381.738281 C 540.925781 384.277344 525.328125 391.707031 523.472656 394.988281 C 520.257812 396.535156 517.894531 398.113281 515.421875 400.035156 C 518.148438 399.371094 520.273438 398.996094 523.359375 398.820312 C 524.46875 401.535156 528.578125 405.617188 529.003906 407.5 C 527.941406 408.667969 523.691406 409.226562 521.714844 409.554688 L 515.589844 409.835938 C 514.929688 405.507812 514.210938 401.242188 513.429688 397.046875 C 544.269531 380.695312 547.21875 341.875 536.878906 313.417969 Z M 286.363281 270.746094 C 280.996094 265.726562 276.503906 264.136719 274.007812 263.203125 C 284.132812 269.683594 289.140625 279.230469 289.539062 288.355469 C 289.492188 288.4375 289.136719 288.976562 289.085938 289.054688 C 283.664062 292.679688 279.445312 298.699219 276.421875 304.523438 C 267.3125 315.375 265.519531 321.808594 265.007812 328.007812 C 266.113281 322.949219 267.902344 318.921875 272.542969 313.417969 C 260.988281 345.222656 266.984375 383.800781 298.851562 398.464844 C 309.238281 403.242188 322.503906 407.523438 333.484375 404.5625 C 325.269531 409.472656 314.632812 409.679688 305.027344 404.164062 C 323.789062 417.316406 347.597656 406.191406 351.589844 384.726562 C 353.375 390.460938 353.039062 397.136719 349.730469 403.828125 C 353.617188 398.421875 355.050781 393.429688 355.027344 388.195312 C 359.375 393.492188 364.648438 402.859375 368.25 414.921875 C 366.53125 413.390625 364.882812 411.738281 363.242188 409.929688 C 364.890625 413.039062 365.769531 414.515625 367.980469 417.605469 C 364.175781 415.023438 361.980469 415.210938 360.542969 416.621094 C 358.980469 418.152344 358.3125 421.121094 357.460938 423.554688 C 353.796875 419.0625 350.308594 416.398438 345.269531 414.132812 C 349.316406 417.902344 351.929688 421.828125 353.542969 426.992188 C 348.539062 425.851562 344.605469 423.960938 341.769531 425.789062 C 338.636719 422.59375 335.390625 420.160156 331.832031 417.988281 C 334.101562 421.191406 335.820312 424.15625 337.34375 427.894531 C 326.757812 428.59375 314.351562 422.972656 305.359375 416.761719 C 302.738281 416.359375 298.875 415.847656 296.226562 415.855469 C 295.78125 415.078125 295.277344 413.792969 294.332031 412.609375 C 304.472656 409.871094 303.179688 410.269531 302.691406 410.246094 C 295.882812 409.933594 299.207031 410.085938 287.707031 409.554688 C 286.050781 409.28125 281.503906 408.691406 280.417969 407.5 C 280.847656 405.617188 284.953125 401.535156 286.066406 398.820312 C 289.070312 398.992188 291.226562 399.359375 294 400.035156 C 291.40625 398.019531 288.980469 396.449219 285.949219 394.988281 C 284.097656 391.707031 268.496094 384.277344 265.957031 381.738281 C 265.128906 380.421875 263.402344 378.324219 263.054688 377.253906 C 263.890625 376.367188 264.277344 375.21875 264.125 374.050781 C 263.738281 371.105469 260.3125 369.546875 256.695312 367.617188 C 260.21875 365.304688 264.753906 362.367188 263.289062 357.945312 C 262.515625 355.613281 259.023438 351.535156 256.492188 343.640625 C 259.621094 340.910156 262.886719 338.292969 265.542969 336.3125 C 262.683594 337.03125 258.925781 338.105469 255.3125 339.289062 C 253.609375 331.664062 253.136719 321.402344 256.289062 307.84375 L 259.402344 306.691406 C 263.894531 305.378906 267.890625 304.863281 272.488281 304.785156 C 268.027344 303.019531 263.925781 301.929688 258.988281 301.382812 C 256.621094 299.007812 254.394531 296.4375 253.023438 294.554688 C 258.035156 295.625 261.671875 297.210938 264.089844 295.671875 C 264.925781 295.132812 265.488281 294.308594 265.671875 293.335938 C 266.167969 290.714844 264.066406 288.5625 254.59375 278.660156 C 259.246094 280.660156 264.210938 283.242188 265.152344 284.675781 L 272.710938 296.1875 C 270.589844 281.414062 270.804688 281.664062 269.5625 278.316406 C 273.109375 282.019531 275.433594 285.636719 276.351562 287.03125 C 272.015625 275.96875 265.371094 267.433594 258.222656 261.558594 C 242.730469 246.226562 227.945312 246.117188 226.828125 237.863281 C 263.210938 248.472656 279.277344 261.476562 286.363281 270.746094 Z M 333.011719 398.234375 C 329.382812 399.433594 325.054688 399.660156 320.09375 398.914062 C 323.070312 392.976562 326.453125 388.214844 330.195312 384.984375 C 332.253906 385.019531 334.941406 385.558594 337.96875 386.644531 C 336.195312 390.359375 334.542969 394.230469 333.011719 398.234375 Z M 311.011719 528.347656 C 310.066406 524.28125 309.253906 520.101562 308.5625 515.847656 C 311.929688 514.820312 316.625 513.101562 321.824219 509.535156 C 324.734375 530.714844 330.488281 552.972656 341.171875 564.964844 C 333.789062 557.785156 328.09375 546.257812 323.769531 533.363281 C 318.015625 531.503906 313.375 528.773438 310.648438 526.050781 C 310.648438 526.050781 310.765625 526.894531 311.011719 528.347656 Z M 295.980469 502.589844 C 297.003906 500.054688 297.792969 497.128906 297.792969 496.953125 C 297.792969 497.085938 295.242188 499.074219 294.535156 499.589844 C 308.328125 471.828125 306.566406 475.164062 307.511719 474.015625 C 309.4375 471.683594 308.921875 472.058594 312.195312 469.351562 C 313.371094 468.382812 313.191406 468.414062 313.253906 468.644531 C 313.503906 469.566406 313.742188 470.355469 313.945312 470.988281 C 312.691406 473.207031 304.796875 487.175781 303.085938 490.195312 C 322.210938 471.722656 319.5 474.117188 321.054688 473.234375 C 320.765625 477.308594 320.171875 477.707031 317.011719 484.414062 C 311.789062 493.089844 304.523438 499.214844 295.980469 502.589844 Z M 292.871094 454.382812 C 295.578125 442.894531 299.644531 433.78125 299.714844 433.78125 C 300.703125 431.578125 300.496094 431.910156 301.328125 431.195312 C 303.921875 428.957031 306.285156 428.160156 309.492188 427.476562 C 307.71875 433.492188 305.28125 437.964844 301.707031 442.730469 C 310.394531 437.035156 312.964844 432.425781 313.273438 432.425781 C 313.792969 436.296875 312.214844 439.253906 311.210938 442.710938 C 306.738281 447.449219 299.957031 452.128906 292.871094 454.382812 Z M 262.039062 444.476562 C 264.324219 439.140625 269.066406 429.414062 275.980469 421.804688 C 281.285156 419.40625 285.113281 419.5625 290.011719 420.273438 C 286.640625 427.4375 280.820312 433.035156 272.304688 436.308594 C 281.0625 435.308594 288.871094 431.128906 293.847656 425.667969 C 293.628906 427.964844 292.746094 430.285156 291.746094 432.355469 C 283.765625 439.632812 273.390625 444.289062 262.039062 444.476562 Z M 203.941406 359.515625 C 214.472656 356.027344 226.738281 353.300781 238.558594 352.082031 C 245.011719 352.398438 248.746094 353.757812 253.972656 356.660156 C 254.632812 356.660156 239.929688 357.589844 222.421875 360.808594 C 228.035156 360.808594 237.191406 361.132812 245.828125 361.808594 C 246.28125 361.808594 236.566406 361.632812 226.613281 363.734375 C 220.214844 365.085938 222.390625 365.261719 219.519531 364.722656 C 214.332031 363.753906 208.566406 362.03125 203.941406 359.515625 Z M 198.292969 338.546875 C 208.550781 334.304688 221.246094 331.109375 234.507812 330.015625 C 242.363281 331.28125 246.242188 333.667969 248.339844 334.5625 C 248.367188 334.78125 248.394531 335.003906 248.421875 335.222656 C 217.261719 339.128906 218.460938 338.988281 218.386719 338.988281 C 225.632812 339.648438 239.535156 340.917969 246.457031 341.550781 C 242.417969 344.714844 236.585938 346.089844 231.429688 346.570312 C 220.925781 346.378906 208.421875 343.753906 198.292969 338.546875 Z M 227.089844 276.730469 C 236.355469 279.214844 244.644531 283.414062 252.675781 288.253906 C 251.441406 288.070312 250.066406 287.976562 248.859375 288.265625 C 235.636719 285.0625 222.253906 282.386719 211.214844 280.578125 C 211.308594 280.578125 227.484375 286.21875 245.84375 294.195312 C 246.265625 295.460938 247.078125 296.832031 248.167969 298.316406 C 240.804688 298.113281 235.410156 297.082031 228.546875 295.042969 C 223.75 293.617188 216.175781 291.460938 212.320312 289.050781 C 207.671875 286.148438 199.570312 279.382812 194.308594 273.140625 C 206.78125 273.15625 221.429688 275.210938 227.089844 276.730469 Z M 232.367188 305.136719 C 238.171875 307.226562 241.789062 309.386719 247.339844 312.730469 C 243.832031 312.527344 218.226562 311.035156 213.011719 310.730469 L 248.207031 319.289062 C 248.179688 319.585938 248.15625 319.878906 248.132812 320.171875 C 245.210938 321 243.402344 321.453125 239.015625 321.308594 C 236.707031 321.230469 234.214844 320.984375 231.925781 320.707031 C 225.929688 319.980469 222.5 320.527344 217.582031 318.660156 C 211.421875 316.316406 202.570312 311.535156 197.351562 307.257812 C 208.28125 304.582031 220.816406 304.117188 232.367188 305.136719 Z M 230.675781 369.226562 C 234.980469 368.480469 235.09375 368.519531 237.921875 368.882812 C 243.570312 369.605469 247.160156 370.949219 251.9375 373.046875 C 236.414062 376.238281 224.246094 376.476562 225.554688 376.476562 C 235.613281 378.023438 244.0625 378.71875 253.996094 378.777344 C 252.710938 379.992188 251.371094 380.824219 250.078125 381.40625 C 246.519531 383.015625 243.453125 382.691406 242.6875 382.792969 C 232.886719 382.363281 220.285156 380.421875 211.464844 376.019531 C 214.8125 373.898438 220.945312 370.910156 230.675781 369.226562 Z M 247.890625 388.984375 C 255.882812 388.519531 262.351562 389.507812 269.433594 392.640625 C 269.808594 392.640625 258.308594 393.515625 241.226562 397.054688 C 241.152344 397.054688 250.214844 396.917969 259.289062 397.410156 C 263.78125 397.652344 268.203125 398.035156 268.128906 398.035156 C 261.332031 401.1875 263.054688 401.199219 258.929688 402.171875 C 249.804688 404.328125 238.097656 404.027344 226.355469 400.03125 C 231.984375 395.367188 239.40625 391.367188 247.890625 388.984375 Z M 260.367188 409.367188 C 262.160156 408.21875 261.703125 408.390625 263.59375 407.988281 C 267.457031 407.164062 269.617188 407.15625 272.367188 407.464844 C 272.441406 407.464844 272.824219 407.179688 255.417969 418.082031 C 261.527344 416.421875 267.714844 414.742188 273.941406 413.050781 C 273.308594 415.53125 271.789062 417.503906 269.707031 418.980469 C 262.054688 421.238281 252.832031 422.261719 244.460938 421.320312 C 249.425781 417.054688 254.902344 412.875 260.367188 409.367188 Z M 326.253906 432.964844 C 327.191406 433.171875 328.101562 433.34375 328.988281 433.492188 C 326.910156 445.019531 323.21875 455.359375 323.21875 455.1875 C 327.441406 449.433594 331.5 442.703125 334.65625 436.492188 C 337.882812 442.476562 335.765625 450.3125 328.5625 454.300781 C 331.09375 453.636719 332.855469 452.707031 334.460938 451.429688 C 330.453125 457.347656 325.238281 463.402344 319.238281 467.171875 C 319.238281 467.367188 315.6875 455.160156 318.464844 442.0625 C 320.003906 438.402344 322.609375 434.464844 326.253906 432.964844 Z M 337.566406 457.703125 C 336.328125 469.898438 330.875 482.589844 323.996094 492.664062 C 323.996094 491.925781 334.65625 483.308594 341.308594 464.078125 C 341.128906 466.375 340.902344 468.46875 340.703125 469.933594 C 337.304688 483.015625 330.714844 494.980469 319.9375 503.226562 C 322.117188 498.441406 321.808594 499.191406 321.808594 499.117188 C 320.269531 500.148438 320.144531 500.234375 317.597656 501.945312 C 328.097656 474.808594 326.40625 479.003906 330.285156 471.039062 C 336.527344 458.214844 335.492188 460.511719 337.566406 457.703125 Z M 351.75 449.726562 C 354.5 445.101562 355.519531 439.949219 354.933594 435.238281 C 355.410156 435.617188 355.960938 436.109375 356.109375 436.257812 C 358.027344 439.902344 357.808594 442.339844 357.851562 446.332031 C 355.53125 452.425781 352.023438 459.3125 347.484375 463.988281 C 347.925781 458.109375 348.164062 449.46875 346.894531 441.195312 C 347.070312 438.175781 347.40625 436.90625 348.328125 433.6875 C 351.824219 438.007812 352.800781 444.164062 351.75 449.726562 Z M 344.863281 479.019531 C 346.753906 474.867188 351.777344 469.695312 355.097656 466.140625 C 352.046875 482.792969 346.496094 493.382812 346.496094 493.738281 C 352.523438 484.980469 356.863281 476.953125 360.675781 467.03125 C 360.933594 469.019531 361.039062 470.65625 361.003906 472.851562 C 357.875 485.023438 352.109375 497.859375 342.105469 505.480469 C 343.050781 503.253906 342.222656 505.203125 343.777344 501.542969 C 342.460938 502.410156 339.984375 504.039062 338.667969 504.90625 C 342.75 487.859375 340.300781 498.082031 344.863281 479.019531 Z M 311.722656 500.125 L 307.746094 510.398438 C 307.445312 508.191406 307.183594 505.964844 306.945312 503.730469 C 308.5625 502.660156 310.164062 501.46875 311.722656 500.125 Z M 354.195312 502.023438 C 355.164062 512.128906 356.71875 521.910156 358.863281 530.980469 C 355.460938 532.6875 352.011719 533.875 348.589844 534.632812 C 346.878906 527.738281 345.339844 520.039062 344.15625 511.578125 C 347.261719 509.46875 350.761719 506.417969 354.195312 502.023438 Z M 372.558594 493.519531 C 371.71875 506.59375 369.886719 519.300781 367.050781 530.757812 C 364.765625 521.507812 363.128906 511.429688 362.144531 500.996094 C 365.230469 499.390625 368.359375 497.464844 372.558594 493.519531 Z M 368.304688 489.121094 L 368.355469 488.839844 L 366.023438 490.15625 C 368.210938 470.71875 368.625 467.523438 368.8125 463.878906 C 370.492188 466.390625 371.46875 467.527344 372.054688 468.246094 C 372.808594 475.535156 371.082031 480.492188 369.960938 483.46875 C 372.722656 480.085938 374.90625 476.277344 376.273438 472.199219 C 376.410156 474.378906 376.582031 476.554688 376.8125 478.722656 C 374.503906 482.503906 371.671875 485.964844 368.304688 489.121094 Z M 373.738281 460.164062 C 370.746094 455.597656 368.019531 450.234375 366.070312 444.683594 C 364.902344 437.972656 363.890625 435.621094 364.796875 428.714844 C 368.933594 435.492188 370.679688 441.621094 371.5 448.835938 C 372.433594 441.089844 371.917969 434.242188 369.472656 426.734375 C 370.171875 427.265625 370.835938 427.824219 371.476562 428.398438 C 373.167969 437.316406 374.949219 451.988281 375.355469 456.816406 C 374.898438 457.953125 374.367188 459.078125 373.738281 460.164062 Z M 216.046875 244.542969 C 228.652344 249.195312 241.660156 256.839844 252.019531 266.582031 C 221.40625 252.351562 212.859375 248.328125 212.957031 248.425781 C 220.085938 252.933594 239.558594 265.242188 246.671875 269.738281 C 246.238281 269.707031 245.8125 269.746094 245.382812 269.847656 C 242.378906 269.054688 239.410156 268.074219 236.480469 267.078125 C 221.25 261.890625 221.640625 262.695312 212.308594 257.003906 C 206.988281 252.140625 202.015625 246.589844 198.023438 240.484375 C 199.5 240.492188 201.03125 240.542969 202.464844 240.621094 C 206.699219 241.84375 211.714844 242.945312 216.046875 244.542969 Z M 27.765625 202.667969 C 37.972656 209.484375 47.257812 214.023438 56.984375 217.921875 C 57.671875 217.921875 43.40625 211.582031 27.515625 197.15625 C 32.089844 199.347656 35.597656 200.808594 40.128906 202.546875 C 35.65625 199.40625 32.015625 196.648438 27.914062 193.15625 C 57.039062 204.464844 88.558594 208.25 119.714844 209.980469 C 143.75 211.316406 152.925781 210.175781 178.753906 218.511719 C 186.304688 220.949219 187.089844 221.339844 191.226562 223.609375 C 197.390625 226.996094 202.089844 230.40625 207.167969 234.824219 C 202.847656 234.375 198.132812 234.207031 193.996094 234.433594 C 180.230469 229.976562 164.277344 225.167969 150.085938 222.222656 C 114.949219 214.925781 100.917969 222.273438 80.136719 219.550781 C 70.660156 218.304688 65.367188 215.296875 65.09375 215.296875 C 78.875 222.542969 92.785156 221.785156 108.085938 221.636719 C 138.457031 221.34375 161.253906 229.402344 190.488281 240.640625 C 115.503906 237.558594 102.003906 234.207031 139.820312 240.011719 C 123.433594 238.921875 103.984375 237.753906 88.101562 234.007812 C 88.257812 233.335938 54.867188 228.074219 27.765625 202.667969 Z M 45.621094 238.820312 C 52.75 242.34375 60.660156 245.820312 60.75 245.820312 C 55.09375 241.933594 47.429688 236.164062 47.429688 236.089844 C 56.710938 240.128906 65.085938 243.207031 74.617188 246.324219 C 74.71875 246.324219 62.992188 240.960938 50.035156 233.199219 C 54.503906 234.160156 58.015625 234.738281 62.585938 235.359375 C 62.511719 235.359375 58.914062 233.964844 58.839844 233.9375 C 37.824219 225.683594 79.347656 241.910156 122.972656 245.003906 C 153.914062 247.195312 158.9375 246.660156 172.003906 250.636719 C 174.460938 251.386719 169.023438 249.511719 156.832031 248.355469 C 171.796875 251.75 186.257812 257.929688 198.136719 267.023438 C 194.722656 266.933594 190.761719 266.949219 187.347656 267.234375 C 158.941406 256.851562 127.023438 267.628906 99.308594 250.21875 C 99.308594 250.21875 99.3125 250.21875 99.3125 250.21875 C 126.636719 270.410156 158.933594 260.753906 187.945312 275.039062 C 189.367188 276.855469 190.925781 278.667969 192.632812 280.484375 C 169.808594 285.609375 146.476562 281.460938 125.867188 271.402344 C 125.945312 271.480469 130.035156 273.96875 132.113281 275.109375 C 141.046875 280.023438 146.132812 280.695312 135.347656 278.226562 C 103.015625 270.835938 71.773438 261.273438 45.621094 238.820312 Z M 69.222656 273.105469 C 72.867188 275.105469 75.65625 276.402344 79.457031 277.988281 C 75.832031 275.1875 72.964844 272.757812 69.394531 269.191406 C 80.148438 275.390625 87.003906 277.347656 86.5 277.347656 C 82.820312 274.589844 79.757812 272.097656 76.378906 268.960938 C 113.628906 279.90625 139.085938 285.785156 168.191406 291.398438 C 165.054688 291.398438 161.140625 291.9375 158.308594 292.363281 C 158.238281 292.363281 162.425781 292.335938 167.207031 292.855469 C 176.320312 293.84375 185.222656 296.4375 194.097656 301.734375 C 194.027344 301.734375 192.324219 302.253906 192.246094 302.28125 C 175.414062 301.214844 160.203125 299.449219 143.925781 296.199219 C 121.851562 291.792969 105.773438 286.289062 105.984375 286.5 C 158.914062 307.449219 188.851562 307.796875 190.863281 309.707031 C 180.28125 313.660156 166.695312 314.003906 154.34375 309.34375 C 153.707031 309.105469 153.214844 308.886719 151.464844 308.148438 C 151.667969 308.148438 151.5 308.355469 156.230469 310.921875 C 129.914062 305.410156 117.195312 300.769531 104.878906 295.203125 C 92.3125 289.527344 79.699219 282.148438 69.222656 273.105469 Z M 82.277344 303.015625 C 86.214844 305.410156 89.121094 306.847656 93.242188 308.585938 C 93.515625 308.585938 89.070312 305.675781 83.464844 299.210938 C 91.546875 304.917969 99.140625 309.117188 108.085938 313.054688 C 108.179688 313.054688 101.054688 308.183594 93.011719 300.277344 C 101.402344 302.824219 110.652344 305.453125 118.996094 307.675781 C 124.527344 309.148438 127.382812 310.488281 141.191406 313.851562 C 170.164062 320.917969 173.175781 319.40625 164.535156 319.769531 C 156.320312 320.113281 171.046875 319.128906 190.402344 326.894531 C 166.902344 327.613281 147.757812 324.175781 126.308594 316.882812 C 126.234375 316.882812 139.496094 322.882812 153.761719 326.828125 C 166.535156 330.363281 179.386719 332.277344 192.484375 332.796875 C 182.890625 339.75 168.949219 335.578125 166.890625 335.578125 C 170.183594 336.8125 173.191406 337.894531 176.652344 338.667969 C 155.097656 338.445312 134.929688 333.304688 115.761719 324.820312 C 111.515625 322.941406 111.902344 322.988281 111.902344 323.0625 C 114.582031 324.589844 118.320312 326.773438 121.976562 328.550781 C 107.527344 322.292969 93.699219 313.6875 82.277344 303.015625 Z M 109.527344 344.496094 C 110.484375 344.863281 111.210938 345.109375 111.875 345.324219 C 113.378906 345.8125 113.230469 345.8125 112.511719 345.355469 C 104.875 340.496094 102.875 337.226562 102.589844 337.226562 C 111.324219 342.035156 116.730469 343.8125 116.917969 344 C 116.847656 344 110.644531 339.164062 104.726562 333.1875 C 143.464844 343.011719 155.265625 345.792969 171.070312 347.820312 C 169.789062 347.992188 167.640625 348.445312 166.449219 348.695312 C 164.46875 349.113281 176.726562 347.300781 191.148438 352.5625 C 193.078125 353.265625 195.015625 354.050781 197.5 355.269531 C 196.449219 355.667969 196.132812 355.804688 195.183594 356.195312 C 173.511719 355.96875 155.535156 353.457031 135.804688 348.914062 C 136.769531 348.914062 159.035156 358.246094 191.832031 362.527344 C 181.785156 364.632812 170.308594 364.433594 160.011719 362.53125 C 149.71875 360.570312 142.441406 356.738281 145.535156 358.390625 C 148.828125 360.144531 152.164062 361.765625 155.769531 363.101562 C 158.011719 363.101562 132.890625 360.257812 109.527344 344.496094 Z M 132.304688 374.257812 C 129.839844 373.035156 131.050781 373.921875 137.476562 375.210938 C 134.300781 373.332031 131.359375 371.378906 128.164062 368.683594 C 130.199219 369.734375 132.222656 370.523438 134.269531 371.105469 C 136.871094 371.839844 139.933594 372.25 140.519531 372.25 C 140.445312 372.25 138.382812 370.660156 136.707031 368.953125 C 143.363281 369.332031 150.953125 369.734375 158.898438 370.128906 C 166.476562 371.457031 174.277344 372.179688 182.1875 372.207031 C 196.925781 372.261719 190.839844 370.324219 202.09375 374.605469 C 183.609375 379.304688 166.625 379.796875 147.949219 376.988281 C 168.652344 382.722656 186.214844 383.722656 207.046875 380.628906 C 207.304688 380.773438 209.828125 382.101562 209.9375 382.101562 C 183.496094 391.496094 157.347656 386.683594 132.304688 374.257812 Z M 149.386719 396.230469 C 152.933594 397.792969 157.113281 399.277344 160.863281 400.226562 C 160.976562 400.226562 159.03125 399.023438 155.257812 395.554688 C 158.945312 396.84375 162.640625 397.699219 165.5 398.101562 C 165.574219 398.101562 163.0625 396.460938 159.730469 393.1875 C 165.390625 393.292969 171.878906 393.332031 178.296875 393.285156 C 194.253906 394.074219 195.441406 391.953125 215.9375 393.277344 C 220.65625 393.582031 223.542969 393.980469 224.03125 393.980469 C 222.492188 395.171875 221.003906 396.472656 220.011719 397.429688 C 181.425781 399.746094 173.113281 400.238281 173.238281 400.238281 L 219.46875 403.976562 C 225.496094 406.507812 231.496094 408.101562 237.316406 408.929688 C 206.601562 417.839844 178.71875 406.683594 187.191406 409.804688 C 190.265625 410.9375 192.632812 411.714844 196.957031 412.863281 C 182.324219 411.417969 164.675781 405.660156 149.386719 396.230469 Z M 179.433594 426.960938 C 179.285156 426.910156 186.8125 428.695312 186.886719 428.695312 C 186.8125 428.695312 187.332031 429.066406 183.296875 425.703125 C 194.558594 427.402344 193.667969 427.28125 193.738281 427.28125 C 190.953125 425.003906 191.109375 425.128906 188.640625 423.113281 C 196.898438 422.164062 207.046875 420.886719 213.949219 419.96875 C 218.578125 419.367188 227.402344 420.902344 231.996094 422.011719 C 224.828125 424.566406 218.246094 426.015625 211.542969 426.742188 C 206.929688 427.238281 202.84375 427.304688 203.117188 427.304688 C 215.125 429.242188 226.167969 429.21875 238.613281 426.597656 C 240.519531 426.992188 242.691406 427.324219 244.910156 427.535156 C 244.664062 427.535156 231.3125 432.289062 218.46875 433.269531 C 204.824219 434.039062 191.476562 431.84375 179.433594 426.960938 Z M 224.941406 451.941406 C 219.320312 451.808594 213.53125 450.824219 208.15625 449.421875 C 210.515625 448.984375 212.25 448.382812 214.367188 447.375 C 212.152344 447.164062 210.605469 446.859375 208.507812 446.085938 C 236.183594 436.417969 225.109375 439.882812 236.210938 437.710938 C 241.832031 436.613281 247.890625 435.066406 253.3125 433.148438 C 243.742188 439.828125 235.191406 443.128906 224.121094 445.058594 C 235.824219 444.929688 247.257812 442.398438 257.308594 436.972656 C 256.347656 438.738281 255.402344 440.191406 253.914062 442.035156 C 241.265625 450.792969 233.199219 452.136719 224.941406 451.941406 Z M 230.699219 467.792969 C 233.644531 465.957031 237.167969 463.398438 237.070312 463.398438 C 234.242188 464.128906 230.554688 464.828125 227.117188 465.234375 C 235.152344 460.472656 231.570312 462.59375 244.09375 455.171875 C 250.410156 452.84375 252.894531 451.78125 258.074219 450.511719 C 263.050781 450.828125 267.953125 450.417969 272.714844 449.289062 C 265.3125 453.226562 258.824219 455.648438 249.910156 457.296875 C 247.410156 457.757812 246.203125 457.90625 246.277344 457.90625 C 255.335938 458.09375 263.730469 457.136719 272.550781 454.382812 C 261.902344 462.078125 246.730469 467.421875 230.699219 467.792969 Z M 253.761719 479.484375 C 255.519531 477.6875 257.058594 475.589844 257.058594 475.519531 C 255.605469 476.105469 253.613281 476.699219 251.652344 477.0625 C 255.113281 474.5625 275.792969 459.578125 272.65625 461.902344 C 267.601562 465.632812 270.777344 463.375 276 459.644531 C 278.648438 458.742188 281.355469 458.027344 284.15625 457.816406 C 278.53125 464.25 271.964844 469.253906 264.484375 473.382812 C 273.445312 471.023438 280.808594 467.804688 288.945312 462.148438 C 288.714844 462.972656 288.289062 464.128906 287.660156 465.398438 C 279.214844 473.085938 278.019531 473.496094 275.390625 474.738281 C 268.664062 477.90625 261.164062 479.320312 253.761719 479.484375 Z M 276.570312 487.371094 C 293.96875 468.023438 292.757812 469.5 292.554688 469.316406 C 297.066406 465.09375 300.398438 462.417969 306.167969 458.945312 C 301.621094 466.980469 296.308594 472.570312 288.949219 477.90625 C 293.582031 475.871094 297.375 473.855469 301.800781 470.496094 C 296.582031 478.207031 289.613281 484.527344 281.003906 487.976562 C 280.929688 488.011719 281.65625 487.390625 282.777344 486.382812 Z M 290.9375 489.757812 C 291.453125 489.433594 291.96875 489.085938 292.488281 488.730469 C 292.503906 489.097656 292.511719 489.460938 292.53125 489.824219 L 291.054688 492.796875 C 291.011719 491.789062 290.972656 490.777344 290.9375 489.757812 Z M 292.226562 510.253906 C 292.9375 510.078125 293.679688 509.875 294.441406 509.640625 C 296.019531 520.949219 298.449219 532.339844 301.753906 543.816406 C 299.589844 531.4375 298.007812 519.867188 296.996094 508.78125 C 297.789062 508.488281 298.59375 508.164062 299.410156 507.8125 C 304.296875 548.117188 318.535156 581.050781 339.332031 581.050781 C 351.8125 581.050781 363.003906 568.691406 370.839844 546.246094 C 378.25 525.035156 381.101562 499.503906 381.101562 477.035156 C 381.101562 379.867188 336.875 345.074219 312.199219 397.070312 C 310.929688 396.679688 309.628906 396.234375 308.296875 395.746094 C 308.789062 393.953125 309.292969 392.144531 309.816406 390.320312 C 309.109375 392.0625 308.429688 393.804688 307.765625 395.550781 C 305.753906 394.792969 303.675781 393.921875 301.53125 392.9375 C 318.324219 335.546875 351.148438 317.753906 374.191406 383.734375 C 392.535156 436.265625 392.558594 517.738281 374.191406 570.335938 C 345.441406 652.648438 300.945312 604.503906 292.226562 510.253906 Z M 374.628906 645.378906 C 371.667969 644.71875 370.792969 643.289062 369.535156 641.238281 C 368.898438 638.871094 368.507812 637.25 370.019531 634.695312 C 372.746094 636.503906 373.054688 637.707031 374.058594 639.285156 C 374.503906 641.035156 375.175781 642.242188 374.628906 645.378906 Z M 343.5 616.417969 C 370.933594 613.878906 384.003906 564.152344 389.285156 537.355469 C 395.058594 506.417969 396.269531 474.238281 394.359375 442.570312 C 392.195312 419.820312 387.90625 398.695312 381.757812 381.089844 C 362.8125 326.847656 330.933594 320.0625 308.726562 355.597656 C 314.132812 339.90625 321.941406 322.503906 332.515625 309.789062 L 336.738281 313.117188 L 334.484375 307.511719 C 338.03125 303.574219 341.695312 300.382812 345.441406 297.992188 L 348.320312 313 L 348.746094 296.097656 C 351.234375 294.828125 353.757812 293.917969 356.296875 293.355469 C 360.886719 293.316406 365.324219 294.386719 369.503906 296.28125 L 359.941406 319.953125 L 373.417969 298.320312 C 380.527344 302.554688 387.21875 309.390625 393.125 318.402344 C 387.585938 324.519531 381.996094 330.183594 376.761719 335.074219 C 382.828125 331.347656 389.238281 327.035156 395.597656 322.378906 C 400.15625 330.109375 404.171875 339.199219 407.453125 349.449219 L 385.300781 363.28125 L 408.871094 354.039062 C 412.632812 366.691406 415.757812 380.65625 418.207031 395.546875 L 399.75 404.109375 L 418.941406 400.164062 C 420.679688 411.519531 422.003906 423.34375 422.890625 434.664062 C 416.503906 436.816406 412.363281 438.210938 403.851562 441.078125 C 407.929688 440.710938 416.878906 439.894531 423.234375 439.316406 C 424.019531 450.574219 424.453125 462.105469 424.519531 473.78125 C 422.382812 473.933594 406.757812 475.050781 405.476562 475.144531 L 424.527344 478.265625 C 424.496094 491.785156 423.976562 505.113281 422.992188 518.066406 C 416.691406 517.675781 410.425781 517.75 405.089844 518.167969 C 410.464844 519.03125 416.609375 520.453125 422.652344 522.339844 C 422.160156 528.152344 421.578125 533.878906 420.902344 539.511719 C 409.820312 555.714844 398.640625 551.265625 392.09375 546.050781 C 385.863281 572.742188 370.144531 616.433594 343.5 616.417969 Z M 400.128906 571.078125 C 399.378906 570.679688 398.328125 569.707031 397.730469 569.117188 C 403.308594 567.164062 410.667969 568.671875 415.035156 573.035156 C 411.410156 574.3125 409.457031 573.925781 405.839844 573.476562 C 400 571.523438 402.6875 572.351562 400.128906 571.078125 Z M 401.796875 614.933594 C 395.8125 614.886719 389.023438 610.96875 386.066406 605.253906 C 392.242188 605.3125 398.882812 609.273438 401.796875 614.933594 Z M 421.226562 578.378906 C 425.636719 563.640625 428.375 547.789062 429.988281 532.488281 C 429.910156 532.460938 429.832031 532.429688 429.757812 532.402344 C 436.359375 468.421875 433.460938 328.390625 379.539062 292.703125 L 399.691406 292.703125 C 405.625 293.097656 411.628906 297.15625 417.351562 304.402344 L 399.664062 311.515625 L 403.605469 317.777344 L 417.699219 304.859375 C 434.242188 326.226562 443.277344 365.953125 447.511719 392.554688 C 442.269531 392.503906 434.046875 392.429688 428.410156 392.375 L 429.664062 399.667969 C 432.105469 398.773438 445.871094 393.738281 447.601562 393.105469 C 449.679688 406.277344 451.191406 419.96875 452.167969 432.804688 C 451.066406 432.792969 434.394531 432.613281 433.371094 432.601562 C 433.503906 433.378906 434.136719 437.085938 434.617188 439.890625 C 439.308594 438.183594 445.269531 436.011719 452.222656 433.480469 C 453.195312 446.496094 453.785156 460.953125 453.816406 475.695312 C 446.496094 474.398438 436.257812 472.585938 433.976562 472.179688 C 433.964844 474.96875 433.96875 473.625 433.9375 479.578125 C 439.402344 478.675781 451.671875 476.640625 453.820312 476.285156 C 453.878906 527.441406 449.285156 530.046875 452.710938 533.222656 C 452.578125 534.972656 452.429688 536.71875 452.265625 538.457031 C 445.257812 537.222656 439.226562 535.609375 434.660156 534.136719 C 429.46875 577.148438 412.152344 631.175781 383.261719 663.496094 C 402.734375 638.117188 412.402344 609.121094 421.226562 578.378906 Z M 431.109375 665.550781 C 465.15625 664.210938 479.964844 574.613281 483.675781 540.265625 C 475.0625 540.863281 466.773438 540.449219 459.28125 539.511719 C 453.886719 573.839844 434.5625 664.289062 399.785156 663.972656 C 430.394531 662.765625 445.179688 589.558594 449.710938 559.195312 C 448.859375 564.976562 447.863281 571.128906 446.71875 577.953125 C 451.84375 559.707031 455.746094 547.175781 458.316406 533.058594 C 458.972656 532.375 459.339844 531.507812 459.421875 530.652344 C 463.511719 485.953125 462.304688 439.089844 456.449219 398.195312 C 451.984375 367.027344 440.746094 313.632812 417.417969 292.703125 L 430.234375 292.703125 C 430.835938 293.066406 431.539062 293.277344 432.292969 293.277344 C 446.585938 293.277344 461.363281 314.804688 471.828125 350.867188 C 494.988281 430.695312 485.289062 532.355469 485.109375 531.585938 C 485.347656 532.601562 485.976562 533.480469 486.847656 534.035156 C 485.726562 549.324219 483.449219 563.820312 480.789062 579.648438 C 484.15625 567.667969 487.019531 558.058594 489.316406 548.851562 C 483.597656 581.902344 464.390625 665.851562 431.109375 665.550781 Z M 510.125 524.015625 L 496.207031 530.578125 L 509.371094 530.730469 C 509.183594 532.28125 508.992188 533.820312 508.789062 535.355469 C 503.03125 537.308594 497.214844 538.625 491.476562 539.441406 C 494.1875 526.347656 495.320312 514.132812 495.667969 500.433594 L 494.957031 500.410156 C 496.210938 467.023438 494.738281 431.878906 490.003906 398.804688 C 483.226562 351.472656 470.363281 313.089844 453.277344 295.542969 C 457.597656 297.558594 461.847656 300.621094 465.964844 304.675781 L 461.917969 304.71875 L 471.984375 311.425781 C 477.90625 318.910156 483.46875 328.515625 488.476562 340.027344 C 485.050781 339.917969 481.558594 339.988281 478.96875 340.152344 C 482.855469 341.894531 487.109375 344.164062 491.265625 346.777344 C 496.554688 360.277344 500.609375 374.671875 503.683594 388.960938 L 489.15625 390.253906 C 492.796875 391.398438 503.164062 394.648438 504.964844 395.214844 C 507.066406 405.960938 508.917969 418.222656 510.210938 430.921875 C 505.296875 431.070312 500.023438 431.5625 495.910156 432.1875 C 500.386719 433.410156 505.785156 435.265625 510.824219 437.410156 C 511.917969 450 512.464844 463.011719 512.511719 475.203125 C 511.75 475.378906 498.757812 478.375 498.078125 478.535156 C 501.960938 479.273438 502.746094 479.421875 512.5 481.277344 C 512.378906 494.914062 511.628906 509.546875 510.125 524.015625 Z M 528.417969 487.976562 C 525.914062 486.972656 523.226562 485.589844 520.484375 483.710938 C 520.558594 478.523438 520.535156 476.160156 520.519531 473.65625 L 532.851562 487.371094 L 526.644531 486.382812 Z M 552.367188 475.519531 C 553.363281 476.914062 554.253906 478.046875 555.660156 479.484375 C 548.445312 479.324219 539.230469 477.925781 530.859375 473.074219 C 528.515625 471.382812 525.257812 468.582031 521.761719 465.398438 C 521.246094 464.351562 520.789062 463.265625 520.476562 462.148438 C 529.871094 468.679688 537.699219 471.472656 544.941406 473.382812 C 536.613281 468.789062 530.320312 463.59375 525.265625 457.816406 C 527.222656 457.964844 529.6875 458.371094 533.421875 459.644531 C 552.550781 473.296875 515.464844 446.480469 557.769531 477.0625 C 555.761719 476.691406 553.777344 476.089844 552.367188 475.519531 Z M 572.351562 463.398438 C 573.949219 464.632812 576.269531 466.261719 578.722656 467.792969 C 562.296875 467.414062 547.21875 461.863281 536.875 454.382812 C 545.574219 457.101562 553.941406 458.097656 563.144531 457.90625 C 551.8125 456.203125 544.570312 453.472656 536.707031 449.289062 C 541.070312 450.324219 545.972656 450.851562 551.347656 450.511719 C 556.484375 451.769531 558.757812 452.75 565.328125 455.171875 L 582.304688 465.234375 C 578.769531 464.816406 575.089844 464.105469 572.351562 463.398438 Z M 600.917969 446.085938 C 598.792969 446.867188 597.238281 447.167969 595.058594 447.375 C 597.128906 448.363281 598.867188 448.976562 601.269531 449.421875 C 594.140625 451.28125 584.96875 452.761719 576.257812 451.472656 C 576.300781 451.210938 568.84375 451.265625 555.507812 442.035156 C 553.933594 440.082031 553.003906 438.605469 552.113281 436.972656 C 562.332031 442.484375 573.769531 444.929688 585.300781 445.058594 C 574.144531 443.113281 565.640625 439.804688 556.113281 433.148438 C 566.984375 437 578.542969 438.714844 580.113281 438.820312 Z M 626.128906 425.703125 L 622.535156 428.695312 L 629.988281 426.960938 C 620.867188 430.660156 607.496094 434.203125 590.953125 433.269531 C 582.128906 432.597656 572.535156 430.121094 564.511719 427.535156 C 566.574219 427.339844 568.679688 427.039062 570.8125 426.597656 C 583.4375 429.257812 594.503906 429.210938 606.308594 427.304688 C 597.421875 427.027344 588.390625 425.917969 577.425781 422.011719 C 585.238281 420.125 591.570312 419.675781 595.308594 419.890625 C 595.300781 419.996094 610.464844 421.925781 620.78125 423.113281 L 615.683594 427.28125 Z M 612.464844 412.863281 C 618.296875 411.316406 620.542969 410.421875 623.757812 409.242188 C 604.613281 413.957031 587.316406 413.339844 572.105469 408.929688 C 578.183594 408.0625 584.164062 406.40625 589.953125 403.976562 L 636.1875 400.238281 L 589.410156 397.429688 C 588.464844 396.523438 587.128906 395.324219 585.390625 393.980469 C 587.640625 393.820312 592.273438 393.089844 603.726562 392.871094 C 615.785156 392.640625 617.765625 393.945312 631.125 393.285156 C 634.996094 393.3125 642.03125 393.328125 649.691406 393.1875 C 647.78125 395.066406 645.621094 396.871094 643.921875 398.101562 C 646.785156 397.699219 650.476562 396.84375 654.167969 395.554688 C 652.199219 397.359375 650.113281 399.074219 648.558594 400.226562 C 651.894531 399.386719 656.058594 397.980469 660.039062 396.230469 C 644.589844 405.753906 626.929688 411.429688 612.464844 412.863281 Z M 681.257812 368.683594 C 678.179688 371.28125 675.359375 373.195312 671.945312 375.210938 C 674.191406 374.761719 675.6875 374.429688 678.300781 373.671875 C 652.855469 386.554688 626.296875 391.628906 599.484375 382.101562 C 600.492188 381.632812 601.457031 381.144531 602.375 380.628906 C 623.136719 383.710938 640.703125 382.742188 661.472656 376.988281 C 643.460938 379.695312 626.390625 379.453125 607.328125 374.605469 C 610.542969 373.382812 612.632812 372.492188 615.597656 371.738281 C 624.671875 372.519531 636.695312 372.550781 650.527344 370.128906 C 654.027344 369.957031 662.976562 369.503906 672.714844 368.953125 C 671.394531 370.300781 670.335938 371.175781 668.90625 372.25 C 673.164062 371.851562 677.1875 370.78125 681.257812 368.683594 Z M 704.695312 333.1875 C 700.476562 337.449219 696.78125 340.632812 692.503906 344 C 697.363281 342.027344 701.621094 340.097656 706.832031 337.226562 C 703.398438 340.867188 700.464844 343.140625 696.378906 345.695312 C 697.421875 345.363281 698.363281 345.082031 699.894531 344.496094 C 689.28125 351.65625 674.246094 358.882812 653.652344 363.101562 C 658.589844 361.273438 662.847656 358.9375 664.597656 358.011719 C 659.460938 359.976562 655.050781 361.457031 649.414062 362.53125 C 639.34375 364.390625 627.828125 364.671875 617.589844 362.527344 C 639.277344 359.699219 657.078125 354.722656 673.617188 348.914062 C 659.472656 352.171875 640.394531 355.917969 614.238281 356.195312 C 613.332031 355.824219 612.988281 355.675781 611.925781 355.269531 C 621.984375 350.324219 632.082031 348.472656 643.113281 348.726562 C 642.492188 348.59375 639.808594 348.015625 638.355469 347.820312 C 650.042969 346.320312 656.585938 345.390625 704.695312 333.1875 Z M 727.144531 303.015625 C 715.710938 313.699219 701.980469 322.257812 687.445312 328.550781 C 691.335938 326.660156 695.78125 324.058594 697.523438 323.0625 C 676.980469 332.691406 655.648438 338.433594 632.769531 338.667969 C 636.441406 337.847656 639.65625 336.65625 642.53125 335.578125 C 633.570312 337.128906 624.277344 338.117188 616.9375 332.796875 C 641.863281 331.808594 662.4375 326.015625 683.113281 316.882812 C 662.207031 323.992188 643.019531 327.628906 619.019531 326.894531 C 629.167969 322.816406 637.820312 321.023438 647.273438 319.886719 C 644.765625 319.761719 644.34375 319.714844 640.636719 319.683594 C 656.84375 316.699219 674.015625 312.882812 688.390625 308.214844 C 691.433594 307.417969 703.171875 304.300781 716.414062 300.277344 C 711.257812 305.34375 706.699219 309.097656 701.339844 313.054688 C 709.800781 309.328125 717.5 305.183594 725.957031 299.210938 C 722.53125 303.164062 719.464844 305.910156 716.183594 308.585938 C 720.199219 306.890625 723.128906 305.460938 727.144531 303.015625 Z M 685.878906 302.535156 C 685.902344 302.609375 673.871094 306.59375 653.191406 310.921875 C 655.972656 309.414062 654.941406 310.015625 657.957031 308.148438 C 654.777344 309.488281 655.753906 309.109375 652.695312 310.199219 C 640.851562 314.015625 628.238281 313.324219 618.558594 309.707031 C 618.746094 309.527344 618.933594 309.355469 619.117188 309.171875 C 646.246094 305.246094 671.410156 299.179688 703.441406 286.5 C 669.785156 296.777344 645.015625 300.515625 617.175781 302.28125 C 616.652344 302.117188 616.035156 301.933594 615.324219 301.734375 C 627.066406 294.730469 638.84375 292.445312 651.113281 292.363281 C 647.546875 291.824219 645.035156 291.496094 641.230469 291.398438 C 666.804688 286.46875 692.636719 280.832031 733.046875 268.960938 C 729.433594 272.3125 726.378906 274.757812 722.921875 277.347656 C 728.425781 275.199219 733.628906 272.882812 740.027344 269.191406 C 736.445312 272.769531 733.582031 275.195312 729.96875 277.988281 C 733.511719 276.507812 736.375 275.207031 740.199219 273.105469 C 730.429688 281.546875 713.257812 293.242188 685.878906 302.535156 Z M 667.988281 279.597656 C 675.921875 276.125 678.503906 274.503906 683.554688 271.402344 C 660.164062 282.824219 636.910156 285 616.789062 280.484375 C 618.40625 278.769531 619.976562 276.957031 621.476562 275.039062 C 650.417969 260.78125 682.835938 270.371094 710.113281 250.21875 C 682.410156 267.621094 650.472656 256.855469 622.078125 267.234375 C 618.660156 266.949219 614.699219 266.933594 611.285156 267.023438 C 621.621094 259.113281 635.5 252.234375 652.589844 248.355469 C 644.425781 249.128906 640.613281 249.945312 636.824219 250.816406 C 645.066406 248.261719 649.730469 247.742188 652.070312 247.515625 C 692.445312 243.609375 699.152344 247.339844 756.136719 231.617188 C 752.042969 233.398438 750.28125 234.078125 746.839844 235.359375 C 750.621094 234.847656 754.292969 234.296875 759.386719 233.199219 C 750.925781 238.269531 743.09375 242.339844 734.804688 246.324219 C 743.449219 243.5 752.046875 240.421875 761.992188 236.089844 C 757.257812 239.738281 752.34375 243.296875 748.671875 245.820312 C 752.761719 244.070312 758.335938 241.519531 763.800781 238.820312 C 735.792969 262.867188 702.222656 272.050781 667.988281 279.597656 Z M 667.988281 279.597656 " fill-opacity="1" fill-rule="nonzero"/></g><path fill="#3c78da" d="M 417.117188 345.300781 L 419.375 352.34375 L 435.792969 343.199219 Z M 417.117188 345.300781 " fill-opacity="1" fill-rule="nonzero"/><path fill="#3c78da" d="M 433.449219 517.558594 L 431.390625 524.664062 C 436.960938 525 432.5 524.730469 448.160156 525.667969 C 435.230469 518.542969 439.148438 520.703125 433.449219 517.558594 Z M 433.449219 517.558594 " fill-opacity="1" fill-rule="nonzero"/><path fill="#3c78da" d="M 429.921875 302.089844 C 442.675781 318.601562 449.246094 338.402344 454.078125 359.117188 C 466.25 411.316406 468.320312 485.90625 465.160156 538.402344 C 474.9375 474.460938 473.941406 349.417969 429.921875 302.089844 Z M 429.921875 302.089844 " fill-opacity="1" fill-rule="nonzero"/><path fill="#3c78da" d="M 441.988281 302.109375 C 443.980469 304.6875 446.140625 307.582031 447.941406 310.683594 C 478.945312 360.050781 480.742188 479.996094 477.222656 538.417969 C 486.964844 474.738281 485.996094 349.429688 441.988281 302.109375 Z M 441.988281 302.109375 " fill-opacity="1" fill-rule="nonzero"/><path fill="#3c78da" d="M 358.902344 576.746094 C 346.652344 590.363281 323.972656 587.683594 313.730469 562.738281 C 319.386719 590.183594 348.511719 593.863281 358.902344 576.746094 Z M 358.902344 576.746094 " fill-opacity="1" fill-rule="nonzero"/><path fill="#3c78da" d="M 358.941406 583.96875 C 347.082031 597.128906 325.003906 594.988281 314.230469 570.410156 C 319.441406 597.042969 348.964844 601.691406 358.941406 583.96875 Z M 358.941406 583.96875 " fill-opacity="1" fill-rule="nonzero"/><path fill="#3c78da" d="M 358.976562 591.195312 C 358.027344 592.25 357.761719 592.578125 357.253906 593.003906 C 349.570312 601.140625 327.171875 604.726562 314.730469 578.085938 C 319.582031 604.296875 349.546875 609.324219 358.976562 591.195312 Z M 358.976562 591.195312 " fill-opacity="1" fill-rule="nonzero"/><path fill="#3c78da" d="M 319.757812 593.386719 C 317.175781 589.683594 316.722656 588.765625 315.230469 585.761719 C 319.761719 611.738281 350.242188 616.789062 359.011719 598.421875 C 346.953125 611.746094 328.417969 606.066406 319.757812 593.386719 Z M 319.757812 593.386719 " fill-opacity="1" fill-rule="nonzero"/><g fill="#000000" fill-opacity="1"><g transform="translate(0.890869, 154.055463)"><g><path d="M 79.203125 0 L 62.046875 0 L 55.84375 -19.03125 L 24.21875 -19.03125 L 18.015625 0 L 1.234375 0 L 29.75 -82.546875 L 50.703125 -82.546875 Z M 39.234375 -65.328125 L 28.625 -32.75 L 51.3125 -32.75 L 40.65625 -65.328125 Z M 39.234375 -65.328125 "/></g></g></g><g fill="#000000" fill-opacity="1"><g transform="translate(81.335647, 154.055463)"><g><path d="M 28.515625 1.1875 C 21.515625 1.1875 16.347656 -0.722656 13.015625 -4.546875 C 9.679688 -8.367188 8.015625 -13.851562 8.015625 -21 L 8.015625 -62.265625 L 23.65625 -62.265625 L 23.65625 -22.984375 C 23.65625 -19.179688 24.472656 -16.40625 26.109375 -14.65625 C 27.742188 -12.90625 30.273438 -12.03125 33.703125 -12.03125 C 38.035156 -12.03125 41.40625 -13.445312 43.8125 -16.28125 C 46.21875 -19.125 47.421875 -23.597656 47.421875 -29.703125 L 47.421875 -62.265625 L 63.0625 -62.265625 L 63.0625 0 L 48.046875 0 L 48.046875 -9.140625 L 46.859375 -9.421875 C 44.867188 -5.847656 42.429688 -3.1875 39.546875 -1.4375 C 36.671875 0.3125 32.992188 1.1875 28.515625 1.1875 Z M 28.515625 1.1875 "/></g></g></g><g fill="#000000" fill-opacity="1"><g transform="translate(153.369005, 154.055463)"><g><path d="M 42.96875 -14.84375 L 47.03125 -3.28125 C 45.332031 -1.882812 43.203125 -0.789062 40.640625 0 C 38.085938 0.789062 35.191406 1.1875 31.953125 1.1875 C 25.210938 1.1875 20.09375 -0.644531 16.59375 -4.3125 C 13.09375 -7.988281 11.34375 -13.328125 11.34375 -20.328125 L 11.34375 -49.90625 L 1.859375 -49.90625 L 1.859375 -62.328125 L 11.34375 -62.328125 L 11.34375 -74.46875 L 26.984375 -77.015625 L 26.984375 -62.328125 L 44.65625 -62.328125 L 44.65625 -49.90625 L 26.984375 -49.90625 L 26.984375 -21.453125 C 26.984375 -18.367188 27.625 -16.117188 28.90625 -14.703125 C 30.1875 -13.296875 32.050781 -12.59375 34.5 -12.59375 C 37.28125 -12.59375 39.707031 -13.34375 41.78125 -14.84375 Z M 42.96875 -14.84375 "/></g></g></g><g fill="#000000" fill-opacity="1"><g transform="translate(201.014836, 154.055463)"><g><path d="M 36.1875 1.1875 C 30.09375 1.1875 24.738281 -0.0625 20.125 -2.5625 C 15.519531 -5.070312 11.945312 -8.742188 9.40625 -13.578125 C 6.863281 -18.410156 5.59375 -24.253906 5.59375 -31.109375 C 5.59375 -37.960938 6.863281 -43.816406 9.40625 -48.671875 C 11.945312 -53.523438 15.519531 -57.203125 20.125 -59.703125 C 24.738281 -62.203125 30.09375 -63.453125 36.1875 -63.453125 C 42.28125 -63.453125 47.632812 -62.203125 52.25 -59.703125 C 56.863281 -57.203125 60.445312 -53.523438 63 -48.671875 C 65.5625 -43.816406 66.84375 -37.960938 66.84375 -31.109375 C 66.84375 -24.253906 65.5625 -18.410156 63 -13.578125 C 60.445312 -8.742188 56.863281 -5.070312 52.25 -2.5625 C 47.632812 -0.0625 42.28125 1.1875 36.1875 1.1875 Z M 36.1875 -12.078125 C 45.863281 -12.078125 50.703125 -18.421875 50.703125 -31.109375 C 50.703125 -37.691406 49.457031 -42.515625 46.96875 -45.578125 C 44.488281 -48.648438 40.894531 -50.1875 36.1875 -50.1875 C 26.519531 -50.1875 21.6875 -43.828125 21.6875 -31.109375 C 21.6875 -18.421875 26.519531 -12.078125 36.1875 -12.078125 Z M 36.1875 -12.078125 "/></g></g></g><g fill="#000000" fill-opacity="1"><g transform="translate(273.38691, 154.055463)"><g/></g></g><g fill="#000000" fill-opacity="1"><g transform="translate(300.653443, 154.055463)"><g><path d="M 27.046875 -36.25 L 27.046875 -13.65625 L 66.453125 -13.65625 L 66.453125 0 L 10.734375 0 L 10.734375 -82.546875 L 65.546875 -82.546875 L 65.546875 -68.875 L 27.046875 -68.875 L 27.046875 -49.5625 L 60.6875 -49.5625 L 60.6875 -36.25 Z M 27.046875 -36.25 "/></g></g></g><g fill="#000000" fill-opacity="1"><g transform="translate(371.614194, 154.055463)"><g><path d="M 29.125 1.1875 C 24.875 1.1875 20.976562 0.6875 17.4375 -0.3125 C 13.90625 -1.3125 10.882812 -2.6875 8.375 -4.4375 C 5.875 -6.1875 4.023438 -8.1875 2.828125 -10.4375 L 11.515625 -19.8125 L 12.703125 -19.8125 C 14.773438 -17.03125 17.222656 -14.941406 20.046875 -13.546875 C 22.867188 -12.148438 25.9375 -11.453125 29.25 -11.453125 C 32.289062 -11.453125 34.582031 -12 36.125 -13.09375 C 37.675781 -14.1875 38.453125 -15.75 38.453125 -17.78125 C 38.453125 -19.363281 37.894531 -20.691406 36.78125 -21.765625 C 35.664062 -22.835938 33.867188 -23.675781 31.390625 -24.28125 L 23.140625 -26.25 C 16.972656 -27.71875 12.46875 -29.96875 9.625 -33 C 6.78125 -36.03125 5.359375 -39.878906 5.359375 -44.546875 C 5.359375 -48.421875 6.347656 -51.785156 8.328125 -54.640625 C 10.304688 -57.503906 13.09375 -59.6875 16.6875 -61.1875 C 20.28125 -62.695312 24.46875 -63.453125 29.25 -63.453125 C 34.851562 -63.453125 39.5 -62.644531 43.1875 -61.03125 C 46.875 -59.414062 49.753906 -57.25 51.828125 -54.53125 L 43.46875 -45.5 L 42.34375 -45.5 C 40.613281 -47.457031 38.664062 -48.890625 36.5 -49.796875 C 34.332031 -50.703125 31.914062 -51.15625 29.25 -51.15625 C 23.070312 -51.15625 19.984375 -49.234375 19.984375 -45.390625 C 19.984375 -43.773438 20.554688 -42.457031 21.703125 -41.4375 C 22.859375 -40.425781 24.882812 -39.597656 27.78125 -38.953125 L 35.453125 -37.265625 C 41.773438 -35.910156 46.394531 -33.734375 49.3125 -30.734375 C 52.226562 -27.742188 53.6875 -23.726562 53.6875 -18.6875 C 53.6875 -14.738281 52.707031 -11.253906 50.75 -8.234375 C 48.789062 -5.222656 45.96875 -2.898438 42.28125 -1.265625 C 38.59375 0.367188 34.207031 1.1875 29.125 1.1875 Z M 29.125 1.1875 "/></g></g></g><g fill="#000000" fill-opacity="1"><g transform="translate(429.02635, 154.055463)"><g><path d="M 29.125 1.1875 C 24.875 1.1875 20.976562 0.6875 17.4375 -0.3125 C 13.90625 -1.3125 10.882812 -2.6875 8.375 -4.4375 C 5.875 -6.1875 4.023438 -8.1875 2.828125 -10.4375 L 11.515625 -19.8125 L 12.703125 -19.8125 C 14.773438 -17.03125 17.222656 -14.941406 20.046875 -13.546875 C 22.867188 -12.148438 25.9375 -11.453125 29.25 -11.453125 C 32.289062 -11.453125 34.582031 -12 36.125 -13.09375 C 37.675781 -14.1875 38.453125 -15.75 38.453125 -17.78125 C 38.453125 -19.363281 37.894531 -20.691406 36.78125 -21.765625 C 35.664062 -22.835938 33.867188 -23.675781 31.390625 -24.28125 L 23.140625 -26.25 C 16.972656 -27.71875 12.46875 -29.96875 9.625 -33 C 6.78125 -36.03125 5.359375 -39.878906 5.359375 -44.546875 C 5.359375 -48.421875 6.347656 -51.785156 8.328125 -54.640625 C 10.304688 -57.503906 13.09375 -59.6875 16.6875 -61.1875 C 20.28125 -62.695312 24.46875 -63.453125 29.25 -63.453125 C 34.851562 -63.453125 39.5 -62.644531 43.1875 -61.03125 C 46.875 -59.414062 49.753906 -57.25 51.828125 -54.53125 L 43.46875 -45.5 L 42.34375 -45.5 C 40.613281 -47.457031 38.664062 -48.890625 36.5 -49.796875 C 34.332031 -50.703125 31.914062 -51.15625 29.25 -51.15625 C 23.070312 -51.15625 19.984375 -49.234375 19.984375 -45.390625 C 19.984375 -43.773438 20.554688 -42.457031 21.703125 -41.4375 C 22.859375 -40.425781 24.882812 -39.597656 27.78125 -38.953125 L 35.453125 -37.265625 C 41.773438 -35.910156 46.394531 -33.734375 49.3125 -30.734375 C 52.226562 -27.742188 53.6875 -23.726562 53.6875 -18.6875 C 53.6875 -14.738281 52.707031 -11.253906 50.75 -8.234375 C 48.789062 -5.222656 45.96875 -2.898438 42.28125 -1.265625 C 38.59375 0.367188 34.207031 1.1875 29.125 1.1875 Z M 29.125 1.1875 "/></g></g></g><g fill="#000000" fill-opacity="1"><g transform="translate(486.438506, 154.055463)"><g><path d="M 61.53125 -27.609375 L 21.515625 -27.609375 C 21.960938 -22.191406 23.503906 -18.25 26.140625 -15.78125 C 28.773438 -13.3125 32.367188 -12.078125 36.921875 -12.078125 C 40.492188 -12.078125 43.390625 -12.742188 45.609375 -14.078125 C 47.835938 -15.421875 49.628906 -17.445312 50.984375 -20.15625 L 52.171875 -20.15625 L 62.5625 -13.5 C 60.519531 -9.125 57.445312 -5.582031 53.34375 -2.875 C 49.25 -0.164062 43.773438 1.1875 36.921875 1.1875 C 30.484375 1.1875 24.921875 -0.0351562 20.234375 -2.484375 C 15.554688 -4.929688 11.945312 -8.570312 9.40625 -13.40625 C 6.863281 -18.238281 5.59375 -24.140625 5.59375 -31.109375 C 5.59375 -38.179688 6.925781 -44.144531 9.59375 -49 C 12.269531 -53.851562 15.882812 -57.472656 20.4375 -59.859375 C 24.988281 -62.253906 30.109375 -63.453125 35.796875 -63.453125 C 44.597656 -63.453125 51.34375 -61.117188 56.03125 -56.453125 C 60.71875 -51.785156 63.0625 -44.9375 63.0625 -35.90625 C 63.0625 -32.632812 62.945312 -30.09375 62.71875 -28.28125 Z M 48.109375 -37.71875 C 47.953125 -42.457031 46.847656 -45.90625 44.796875 -48.0625 C 42.742188 -50.226562 39.742188 -51.3125 35.796875 -51.3125 C 27.890625 -51.3125 23.238281 -46.78125 21.84375 -37.71875 Z M 48.109375 -37.71875 "/></g></g></g><g fill="#000000" fill-opacity="1"><g transform="translate(554.125036, 154.055463)"><g><path d="M 8.984375 0 L 8.984375 -62.265625 L 24 -62.265625 L 24 -53.125 L 25.1875 -52.84375 C 29.0625 -59.914062 35.34375 -63.453125 44.03125 -63.453125 C 51.21875 -63.453125 56.492188 -61.492188 59.859375 -57.578125 C 63.234375 -53.671875 64.921875 -47.972656 64.921875 -40.484375 L 64.921875 0 L 49.28125 0 L 49.28125 -38.5625 C 49.28125 -42.695312 48.453125 -45.675781 46.796875 -47.5 C 45.140625 -49.332031 42.488281 -50.25 38.84375 -50.25 C 34.363281 -50.25 30.867188 -48.796875 28.359375 -45.890625 C 25.859375 -42.992188 24.609375 -38.441406 24.609375 -32.234375 L 24.609375 0 Z M 8.984375 0 "/></g></g></g><g fill="#000000" fill-opacity="1"><g transform="translate(626.609967, 154.055463)"><g><path d="M 42.96875 -14.84375 L 47.03125 -3.28125 C 45.332031 -1.882812 43.203125 -0.789062 40.640625 0 C 38.085938 0.789062 35.191406 1.1875 31.953125 1.1875 C 25.210938 1.1875 20.09375 -0.644531 16.59375 -4.3125 C 13.09375 -7.988281 11.34375 -13.328125 11.34375 -20.328125 L 11.34375 -49.90625 L 1.859375 -49.90625 L 1.859375 -62.328125 L 11.34375 -62.328125 L 11.34375 -74.46875 L 26.984375 -77.015625 L 26.984375 -62.328125 L 44.65625 -62.328125 L 44.65625 -49.90625 L 26.984375 -49.90625 L 26.984375 -21.453125 C 26.984375 -18.367188 27.625 -16.117188 28.90625 -14.703125 C 30.1875 -13.296875 32.050781 -12.59375 34.5 -12.59375 C 37.28125 -12.59375 39.707031 -13.34375 41.78125 -14.84375 Z M 42.96875 -14.84375 "/></g></g></g><g fill="#000000" fill-opacity="1"><g transform="translate(674.989727, 154.055463)"><g><path d="M 16.765625 -69.71875 C 13.941406 -69.71875 11.644531 -70.570312 9.875 -72.28125 C 8.113281 -74 7.234375 -76.210938 7.234375 -78.921875 C 7.234375 -81.597656 8.113281 -83.789062 9.875 -85.5 C 11.644531 -87.21875 13.941406 -88.078125 16.765625 -88.078125 C 18.648438 -88.078125 20.328125 -87.679688 21.796875 -86.890625 C 23.265625 -86.097656 24.398438 -85.015625 25.203125 -83.640625 C 26.015625 -82.265625 26.421875 -80.691406 26.421875 -78.921875 C 26.421875 -77.160156 26.015625 -75.582031 25.203125 -74.1875 C 24.398438 -72.789062 23.265625 -71.695312 21.796875 -70.90625 C 20.328125 -70.113281 18.648438 -69.71875 16.765625 -69.71875 Z M 8.984375 0 L 8.984375 -62.265625 L 24.609375 -62.265625 L 24.609375 0 Z M 8.984375 0 "/></g></g></g><g fill="#000000" fill-opacity="1"><g transform="translate(708.522473, 154.055463)"><g><path d="M 24.28125 1.1875 C 20.289062 1.1875 16.828125 0.453125 13.890625 -1.015625 C 10.953125 -2.484375 8.691406 -4.640625 7.109375 -7.484375 C 5.535156 -10.328125 4.75 -13.742188 4.75 -17.734375 C 4.75 -21.421875 5.535156 -24.515625 7.109375 -27.015625 C 8.691406 -29.515625 11.140625 -31.5625 14.453125 -33.15625 C 17.765625 -34.757812 22.09375 -35.992188 27.4375 -36.859375 C 31.164062 -37.460938 34 -38.125 35.9375 -38.84375 C 37.875 -39.5625 39.179688 -40.367188 39.859375 -41.265625 C 40.535156 -42.171875 40.875 -43.320312 40.875 -44.71875 C 40.875 -46.707031 40.175781 -48.226562 38.78125 -49.28125 C 37.394531 -50.34375 35.082031 -50.875 31.84375 -50.875 C 28.375 -50.875 25.078125 -50.097656 21.953125 -48.546875 C 18.835938 -47.003906 16.128906 -44.972656 13.828125 -42.453125 L 12.703125 -42.453125 L 6.15625 -52.34375 C 9.3125 -55.84375 13.164062 -58.566406 17.71875 -60.515625 C 22.28125 -62.472656 27.25 -63.453125 32.625 -63.453125 C 40.875 -63.453125 46.84375 -61.703125 50.53125 -58.203125 C 54.21875 -54.703125 56.0625 -49.734375 56.0625 -43.296875 L 56.0625 -16.265625 C 56.0625 -13.472656 57.285156 -12.078125 59.734375 -12.078125 C 60.671875 -12.078125 61.59375 -12.25 62.5 -12.59375 L 63.28125 -12.359375 L 64.421875 -1.46875 C 63.554688 -0.90625 62.347656 -0.441406 60.796875 -0.078125 C 59.253906 0.273438 57.5625 0.453125 55.71875 0.453125 C 52 0.453125 49.09375 -0.257812 47 -1.6875 C 44.914062 -3.125 43.421875 -5.363281 42.515625 -8.40625 L 41.328125 -8.53125 C 38.273438 -2.050781 32.59375 1.1875 24.28125 1.1875 Z M 29.25 -10.5 C 32.863281 -10.5 35.75 -11.710938 37.90625 -14.140625 C 40.070312 -16.566406 41.15625 -19.945312 41.15625 -24.28125 L 41.15625 -30.59375 L 40.078125 -30.828125 C 39.140625 -30.078125 37.90625 -29.445312 36.375 -28.9375 C 34.851562 -28.425781 32.664062 -27.925781 29.8125 -27.4375 C 26.425781 -26.875 23.988281 -25.90625 22.5 -24.53125 C 21.007812 -23.15625 20.265625 -21.207031 20.265625 -18.6875 C 20.265625 -16.007812 21.054688 -13.972656 22.640625 -12.578125 C 24.222656 -11.191406 26.425781 -10.5 29.25 -10.5 Z M 29.25 -10.5 "/></g></g></g><g fill="#000000" fill-opacity="1"><g transform="translate(774.176714, 154.055463)"><g><path d="M 25.859375 1.1875 C 20.253906 1.1875 15.972656 -0.328125 13.015625 -3.359375 C 10.054688 -6.390625 8.578125 -10.988281 8.578125 -17.15625 L 8.578125 -87.28125 L 24.21875 -87.28125 L 24.21875 -17.78125 C 24.21875 -13.976562 25.800781 -12.078125 28.96875 -12.078125 C 29.863281 -12.078125 30.820312 -12.226562 31.84375 -12.53125 L 32.625 -12.3125 L 34.046875 -0.28125 C 33.179688 0.164062 32.03125 0.519531 30.59375 0.78125 C 29.164062 1.050781 27.585938 1.1875 25.859375 1.1875 Z M 25.859375 1.1875 "/></g></g></g><g fill="#000000" fill-opacity="1"><g transform="translate(115.137594, 756.009376)"><g><path d="M 35.078125 10.984375 C 31.191406 10.984375 27.960938 10.046875 25.390625 8.171875 C 22.828125 6.304688 21.101562 3.703125 20.21875 0.359375 C 16.863281 -0.117188 13.929688 -1.257812 11.421875 -3.0625 C 8.921875 -4.863281 6.96875 -7.351562 5.5625 -10.53125 C 4.164062 -13.707031 3.46875 -17.550781 3.46875 -22.0625 C 3.46875 -27.113281 4.34375 -31.332031 6.09375 -34.71875 C 7.84375 -38.113281 10.257812 -40.632812 13.34375 -42.28125 C 16.4375 -43.9375 20.007812 -44.765625 24.0625 -44.765625 C 28.101562 -44.765625 31.660156 -43.941406 34.734375 -42.296875 C 37.816406 -40.660156 40.226562 -38.140625 41.96875 -34.734375 C 43.707031 -31.335938 44.578125 -27.113281 44.578125 -22.0625 C 44.578125 -15.457031 43.160156 -10.390625 40.328125 -6.859375 C 37.503906 -3.328125 33.539062 -1.128906 28.4375 -0.265625 L 28.28125 0.328125 C 28.90625 1.398438 29.832031 2.222656 31.0625 2.796875 C 32.300781 3.367188 33.75 3.65625 35.40625 3.65625 C 36.726562 3.65625 37.925781 3.484375 39 3.140625 L 39.59375 3.265625 L 40.84375 10.078125 C 40.195312 10.316406 39.328125 10.523438 38.234375 10.703125 C 37.148438 10.890625 36.097656 10.984375 35.078125 10.984375 Z M 24.0625 -6.9375 C 27.800781 -6.9375 30.65625 -8.140625 32.625 -10.546875 C 34.59375 -12.953125 35.578125 -16.789062 35.578125 -22.0625 C 35.578125 -27.332031 34.59375 -31.175781 32.625 -33.59375 C 30.65625 -36.007812 27.800781 -37.21875 24.0625 -37.21875 C 20.289062 -37.21875 17.414062 -36.007812 15.4375 -33.59375 C 13.457031 -31.175781 12.46875 -27.332031 12.46875 -22.0625 C 12.46875 -16.789062 13.457031 -12.953125 15.4375 -10.546875 C 17.414062 -8.140625 20.289062 -6.9375 24.0625 -6.9375 Z M 24.0625 -6.9375 "/></g></g></g><g fill="#000000" fill-opacity="1"><g transform="translate(163.209132, 756.009376)"><g><path d="M 15.234375 0.640625 C 11.492188 0.640625 8.734375 -0.378906 6.953125 -2.421875 C 5.171875 -4.472656 4.28125 -7.410156 4.28125 -11.234375 L 4.28125 -33.296875 L 12.640625 -33.296875 L 12.640625 -12.28125 C 12.640625 -10.25 13.078125 -8.765625 13.953125 -7.828125 C 14.828125 -6.890625 16.179688 -6.421875 18.015625 -6.421875 C 20.328125 -6.421875 22.128906 -7.179688 23.421875 -8.703125 C 24.710938 -10.222656 25.359375 -12.613281 25.359375 -15.875 L 25.359375 -33.296875 L 33.71875 -33.296875 L 33.71875 0 L 25.6875 0 L 25.6875 -4.890625 L 25.046875 -5.046875 C 23.984375 -3.128906 22.679688 -1.703125 21.140625 -0.765625 C 19.597656 0.171875 17.628906 0.640625 15.234375 0.640625 Z M 15.234375 0.640625 "/></g></g></g><g fill="#000000" fill-opacity="1"><g transform="translate(201.714645, 756.009376)"><g><path d="M 12.984375 0.640625 C 10.847656 0.640625 8.992188 0.25 7.421875 -0.53125 C 5.859375 -1.320312 4.648438 -2.476562 3.796875 -4 C 2.953125 -5.519531 2.53125 -7.347656 2.53125 -9.484375 C 2.53125 -11.453125 2.953125 -13.101562 3.796875 -14.4375 C 4.648438 -15.78125 5.957031 -16.878906 7.71875 -17.734375 C 9.488281 -18.585938 11.804688 -19.242188 14.671875 -19.703125 C 16.660156 -20.023438 18.171875 -20.378906 19.203125 -20.765625 C 20.242188 -21.148438 20.945312 -21.582031 21.3125 -22.0625 C 21.675781 -22.539062 21.859375 -23.15625 21.859375 -23.90625 C 21.859375 -24.96875 21.484375 -25.78125 20.734375 -26.34375 C 19.992188 -26.90625 18.753906 -27.1875 17.015625 -27.1875 C 15.171875 -27.1875 13.410156 -26.773438 11.734375 -25.953125 C 10.066406 -25.128906 8.617188 -24.046875 7.390625 -22.703125 L 6.796875 -22.703125 L 3.296875 -27.984375 C 4.984375 -29.847656 7.039062 -31.300781 9.46875 -32.34375 C 11.90625 -33.394531 14.5625 -33.921875 17.4375 -33.921875 C 21.851562 -33.921875 25.046875 -32.984375 27.015625 -31.109375 C 28.984375 -29.242188 29.96875 -26.59375 29.96875 -23.15625 L 29.96875 -8.6875 C 29.96875 -7.195312 30.625 -6.453125 31.9375 -6.453125 C 32.4375 -6.453125 32.925781 -6.546875 33.40625 -6.734375 L 33.828125 -6.609375 L 34.4375 -0.78125 C 33.976562 -0.476562 33.332031 -0.234375 32.5 -0.046875 C 31.675781 0.140625 30.773438 0.234375 29.796875 0.234375 C 27.796875 0.234375 26.238281 -0.144531 25.125 -0.90625 C 24.007812 -1.664062 23.210938 -2.863281 22.734375 -4.5 L 22.09375 -4.5625 C 20.457031 -1.09375 17.421875 0.640625 12.984375 0.640625 Z M 15.640625 -5.609375 C 17.566406 -5.609375 19.109375 -6.253906 20.265625 -7.546875 C 21.421875 -8.847656 22 -10.660156 22 -12.984375 L 22 -16.359375 L 21.421875 -16.484375 C 20.921875 -16.078125 20.265625 -15.738281 19.453125 -15.46875 C 18.640625 -15.195312 17.46875 -14.929688 15.9375 -14.671875 C 14.125 -14.367188 12.816406 -13.847656 12.015625 -13.109375 C 11.222656 -12.378906 10.828125 -11.335938 10.828125 -9.984375 C 10.828125 -8.554688 11.25 -7.46875 12.09375 -6.71875 C 12.945312 -5.976562 14.128906 -5.609375 15.640625 -5.609375 Z M 15.640625 -5.609375 "/></g></g></g><g fill="#000000" fill-opacity="1"><g transform="translate(236.810187, 756.009376)"><g><path d="M 13.828125 0.640625 C 10.828125 0.640625 8.535156 -0.164062 6.953125 -1.78125 C 5.378906 -3.40625 4.59375 -5.867188 4.59375 -9.171875 L 4.59375 -46.65625 L 12.953125 -46.65625 L 12.953125 -9.5 C 12.953125 -7.46875 13.796875 -6.453125 15.484375 -6.453125 C 15.960938 -6.453125 16.472656 -6.535156 17.015625 -6.703125 L 17.4375 -6.578125 L 18.203125 -0.15625 C 17.734375 0.09375 17.117188 0.285156 16.359375 0.421875 C 15.597656 0.566406 14.753906 0.640625 13.828125 0.640625 Z M 13.828125 0.640625 "/></g></g></g><g fill="#000000" fill-opacity="1"><g transform="translate(255.942237, 756.009376)"><g><path d="M 8.96875 -37.28125 C 7.457031 -37.28125 6.226562 -37.734375 5.28125 -38.640625 C 4.332031 -39.554688 3.859375 -40.738281 3.859375 -42.1875 C 3.859375 -43.625 4.332031 -44.796875 5.28125 -45.703125 C 6.226562 -46.617188 7.457031 -47.078125 8.96875 -47.078125 C 9.96875 -47.078125 10.859375 -46.863281 11.640625 -46.4375 C 12.429688 -46.019531 13.039062 -45.441406 13.46875 -44.703125 C 13.90625 -43.972656 14.125 -43.132812 14.125 -42.1875 C 14.125 -41.25 13.90625 -40.40625 13.46875 -39.65625 C 13.039062 -38.914062 12.429688 -38.332031 11.640625 -37.90625 C 10.859375 -37.488281 9.96875 -37.28125 8.96875 -37.28125 Z M 4.796875 0 L 4.796875 -33.296875 L 13.15625 -33.296875 L 13.15625 0 Z M 4.796875 0 "/></g></g></g><g fill="#000000" fill-opacity="1"><g transform="translate(273.867218, 756.009376)"><g><path d="M 22.96875 -7.9375 L 25.140625 -1.75 C 24.234375 -1.007812 23.09375 -0.425781 21.71875 0 C 20.351562 0.425781 18.804688 0.640625 17.078125 0.640625 C 13.484375 0.640625 10.75 -0.335938 8.875 -2.296875 C 7 -4.265625 6.0625 -7.117188 6.0625 -10.859375 L 6.0625 -26.6875 L 1 -26.6875 L 1 -33.328125 L 6.0625 -33.328125 L 6.0625 -39.8125 L 14.421875 -41.171875 L 14.421875 -33.328125 L 23.875 -33.328125 L 23.875 -26.6875 L 14.421875 -26.6875 L 14.421875 -11.46875 C 14.421875 -9.820312 14.765625 -8.617188 15.453125 -7.859375 C 16.140625 -7.109375 17.132812 -6.734375 18.4375 -6.734375 C 19.925781 -6.734375 21.222656 -7.132812 22.328125 -7.9375 Z M 22.96875 -7.9375 "/></g></g></g><g fill="#000000" fill-opacity="1"><g transform="translate(299.728679, 756.009376)"><g><path d="M 7.359375 14.125 C 5.929688 14.125 4.640625 14.015625 3.484375 13.796875 C 2.328125 13.578125 1.382812 13.285156 0.65625 12.921875 L 1.984375 6.15625 L 2.53125 5.96875 C 3.039062 6.238281 3.664062 6.453125 4.40625 6.609375 C 5.144531 6.765625 5.910156 6.84375 6.703125 6.84375 C 8.046875 6.84375 9.164062 6.664062 10.0625 6.3125 C 10.957031 5.96875 11.71875 5.382812 12.34375 4.5625 C 12.96875 3.75 13.519531 2.617188 14 1.171875 L 0.71875 -33.296875 L 9.484375 -33.296875 L 17.75 -10.140625 L 18.46875 -10.140625 L 26.53125 -33.296875 L 35.046875 -33.296875 L 21.671875 2.078125 C 20.609375 4.941406 19.4375 7.242188 18.15625 8.984375 C 16.875 10.722656 15.363281 12.015625 13.625 12.859375 C 11.882812 13.703125 9.796875 14.125 7.359375 14.125 Z M 7.359375 14.125 "/></g></g></g><g fill="#000000" fill-opacity="1"><g transform="translate(335.457933, 756.009376)"><g/></g></g><g fill="#000000" fill-opacity="1"><g transform="translate(350.033295, 756.009376)"><g><path d="M 19.5625 0.640625 C 16.5 0.640625 13.773438 0.265625 11.390625 -0.484375 C 9.003906 -1.242188 7.015625 -2.238281 5.421875 -3.46875 C 3.835938 -4.695312 2.625 -6.046875 1.78125 -7.515625 L 6.578125 -13.375 L 7.328125 -13.375 C 8.660156 -11.394531 10.347656 -9.820312 12.390625 -8.65625 C 14.429688 -7.488281 16.820312 -6.90625 19.5625 -6.90625 C 21.894531 -6.90625 23.65625 -7.398438 24.84375 -8.390625 C 26.03125 -9.378906 26.625 -10.738281 26.625 -12.46875 C 26.625 -13.507812 26.429688 -14.378906 26.046875 -15.078125 C 25.660156 -15.785156 25.023438 -16.390625 24.140625 -16.890625 C 23.253906 -17.398438 22.054688 -17.835938 20.546875 -18.203125 L 14.875 -19.5 C 10.914062 -20.40625 7.960938 -21.90625 6.015625 -24 C 4.078125 -26.101562 3.109375 -28.835938 3.109375 -32.203125 C 3.109375 -34.703125 3.726562 -36.894531 4.96875 -38.78125 C 6.21875 -40.675781 8.035156 -42.144531 10.421875 -43.1875 C 12.804688 -44.238281 15.660156 -44.765625 18.984375 -44.765625 C 22.378906 -44.765625 25.289062 -44.316406 27.71875 -43.421875 C 30.144531 -42.523438 32.191406 -41.148438 33.859375 -39.296875 L 29.546875 -33.375 L 28.796875 -33.375 C 27.546875 -34.6875 26.113281 -35.671875 24.5 -36.328125 C 22.894531 -36.984375 21.054688 -37.3125 18.984375 -37.3125 C 16.585938 -37.3125 14.765625 -36.882812 13.515625 -36.03125 C 12.273438 -35.1875 11.65625 -34.019531 11.65625 -32.53125 C 11.65625 -31.144531 12.09375 -30.039062 12.96875 -29.21875 C 13.84375 -28.394531 15.351562 -27.75 17.5 -27.28125 L 23.296875 -26.078125 C 27.585938 -25.171875 30.695312 -23.632812 32.625 -21.46875 C 34.5625 -19.3125 35.53125 -16.492188 35.53125 -13.015625 C 35.53125 -10.253906 34.9375 -7.851562 33.75 -5.8125 C 32.5625 -3.769531 30.769531 -2.179688 28.375 -1.046875 C 25.976562 0.078125 23.039062 0.640625 19.5625 0.640625 Z M 19.5625 0.640625 "/></g></g></g><g fill="#000000" fill-opacity="1"><g transform="translate(387.935273, 756.009376)"><g><path d="M 4.796875 13.484375 L 4.796875 -33.296875 L 13.15625 -33.296875 L 13.15625 -28.9375 L 13.796875 -28.828125 C 14.773438 -30.515625 16.085938 -31.785156 17.734375 -32.640625 C 19.390625 -33.492188 21.328125 -33.921875 23.546875 -33.921875 C 26.222656 -33.921875 28.5625 -33.285156 30.5625 -32.015625 C 32.5625 -30.753906 34.117188 -28.828125 35.234375 -26.234375 C 36.347656 -23.648438 36.90625 -20.445312 36.90625 -16.625 C 36.90625 -12.820312 36.316406 -9.632812 35.140625 -7.0625 C 33.960938 -4.488281 32.328125 -2.5625 30.234375 -1.28125 C 28.148438 0 25.738281 0.640625 23 0.640625 C 20.925781 0.640625 19.132812 0.289062 17.625 -0.40625 C 16.113281 -1.101562 14.835938 -2.1875 13.796875 -3.65625 L 13.15625 -3.53125 L 13.15625 13.484375 Z M 20.671875 -6.453125 C 23.171875 -6.453125 25.0625 -7.265625 26.34375 -8.890625 C 27.632812 -10.523438 28.28125 -13.101562 28.28125 -16.625 C 28.28125 -20.144531 27.632812 -22.722656 26.34375 -24.359375 C 25.0625 -26.003906 23.171875 -26.828125 20.671875 -26.828125 C 18.335938 -26.828125 16.484375 -25.984375 15.109375 -24.296875 C 13.742188 -22.609375 13.0625 -20.050781 13.0625 -16.625 C 13.0625 -13.226562 13.742188 -10.679688 15.109375 -8.984375 C 16.484375 -7.296875 18.335938 -6.453125 20.671875 -6.453125 Z M 20.671875 -6.453125 "/></g></g></g><g fill="#000000" fill-opacity="1"><g transform="translate(427.798724, 756.009376)"><g><path d="M 12.984375 0.640625 C 10.847656 0.640625 8.992188 0.25 7.421875 -0.53125 C 5.859375 -1.320312 4.648438 -2.476562 3.796875 -4 C 2.953125 -5.519531 2.53125 -7.347656 2.53125 -9.484375 C 2.53125 -11.453125 2.953125 -13.101562 3.796875 -14.4375 C 4.648438 -15.78125 5.957031 -16.878906 7.71875 -17.734375 C 9.488281 -18.585938 11.804688 -19.242188 14.671875 -19.703125 C 16.660156 -20.023438 18.171875 -20.378906 19.203125 -20.765625 C 20.242188 -21.148438 20.945312 -21.582031 21.3125 -22.0625 C 21.675781 -22.539062 21.859375 -23.15625 21.859375 -23.90625 C 21.859375 -24.96875 21.484375 -25.78125 20.734375 -26.34375 C 19.992188 -26.90625 18.753906 -27.1875 17.015625 -27.1875 C 15.171875 -27.1875 13.410156 -26.773438 11.734375 -25.953125 C 10.066406 -25.128906 8.617188 -24.046875 7.390625 -22.703125 L 6.796875 -22.703125 L 3.296875 -27.984375 C 4.984375 -29.847656 7.039062 -31.300781 9.46875 -32.34375 C 11.90625 -33.394531 14.5625 -33.921875 17.4375 -33.921875 C 21.851562 -33.921875 25.046875 -32.984375 27.015625 -31.109375 C 28.984375 -29.242188 29.96875 -26.59375 29.96875 -23.15625 L 29.96875 -8.6875 C 29.96875 -7.195312 30.625 -6.453125 31.9375 -6.453125 C 32.4375 -6.453125 32.925781 -6.546875 33.40625 -6.734375 L 33.828125 -6.609375 L 34.4375 -0.78125 C 33.976562 -0.476562 33.332031 -0.234375 32.5 -0.046875 C 31.675781 0.140625 30.773438 0.234375 29.796875 0.234375 C 27.796875 0.234375 26.238281 -0.144531 25.125 -0.90625 C 24.007812 -1.664062 23.210938 -2.863281 22.734375 -4.5 L 22.09375 -4.5625 C 20.457031 -1.09375 17.421875 0.640625 12.984375 0.640625 Z M 15.640625 -5.609375 C 17.566406 -5.609375 19.109375 -6.253906 20.265625 -7.546875 C 21.421875 -8.847656 22 -10.660156 22 -12.984375 L 22 -16.359375 L 21.421875 -16.484375 C 20.921875 -16.078125 20.265625 -15.738281 19.453125 -15.46875 C 18.640625 -15.195312 17.46875 -14.929688 15.9375 -14.671875 C 14.125 -14.367188 12.816406 -13.847656 12.015625 -13.109375 C 11.222656 -12.378906 10.828125 -11.335938 10.828125 -9.984375 C 10.828125 -8.554688 11.25 -7.46875 12.09375 -6.71875 C 12.945312 -5.976562 14.128906 -5.609375 15.640625 -5.609375 Z M 15.640625 -5.609375 "/></g></g></g><g fill="#000000" fill-opacity="1"><g transform="translate(462.894282, 756.009376)"><g><path d="M 4.796875 0 L 4.796875 -33.296875 L 12.921875 -33.296875 L 12.921875 -28.34375 L 13.546875 -28.21875 C 14.359375 -30.070312 15.414062 -31.429688 16.71875 -32.296875 C 18.03125 -33.160156 19.617188 -33.59375 21.484375 -33.59375 C 23.378906 -33.59375 24.820312 -33.269531 25.8125 -32.625 L 24.390625 -25.40625 L 23.75 -25.296875 C 23.207031 -25.515625 22.679688 -25.671875 22.171875 -25.765625 C 21.671875 -25.867188 21.0625 -25.921875 20.34375 -25.921875 C 18.007812 -25.921875 16.226562 -25.097656 15 -23.453125 C 13.769531 -21.816406 13.15625 -19.191406 13.15625 -15.578125 L 13.15625 0 Z M 4.796875 0 "/></g></g></g><g fill="#000000" fill-opacity="1"><g transform="translate(488.121968, 756.009376)"><g><path d="M 32.890625 -14.765625 L 11.5 -14.765625 C 11.738281 -11.859375 12.5625 -9.742188 13.96875 -8.421875 C 15.382812 -7.109375 17.304688 -6.453125 19.734375 -6.453125 C 21.648438 -6.453125 23.203125 -6.8125 24.390625 -7.53125 C 25.578125 -8.25 26.53125 -9.332031 27.25 -10.78125 L 27.890625 -10.78125 L 33.4375 -7.21875 C 32.351562 -4.882812 30.710938 -2.988281 28.515625 -1.53125 C 26.328125 -0.0820312 23.398438 0.640625 19.734375 0.640625 C 16.296875 0.640625 13.320312 -0.015625 10.8125 -1.328125 C 8.3125 -2.640625 6.378906 -4.585938 5.015625 -7.171875 C 3.660156 -9.753906 2.984375 -12.90625 2.984375 -16.625 C 2.984375 -20.40625 3.695312 -23.59375 5.125 -26.1875 C 6.5625 -28.789062 8.492188 -30.726562 10.921875 -32 C 13.359375 -33.28125 16.097656 -33.921875 19.140625 -33.921875 C 23.847656 -33.921875 27.453125 -32.671875 29.953125 -30.171875 C 32.460938 -27.679688 33.71875 -24.023438 33.71875 -19.203125 C 33.71875 -17.441406 33.65625 -16.082031 33.53125 -15.125 Z M 25.71875 -20.15625 C 25.632812 -22.695312 25.039062 -24.546875 23.9375 -25.703125 C 22.84375 -26.859375 21.242188 -27.4375 19.140625 -27.4375 C 14.910156 -27.4375 12.425781 -25.007812 11.6875 -20.15625 Z M 25.71875 -20.15625 "/></g></g></g><g fill="#000000" fill-opacity="1"><g transform="translate(524.303889, 756.009376)"><g/></g></g><g fill="#000000" fill-opacity="1"><g transform="translate(538.879267, 756.009376)"><g><path d="M 22.78125 -44.125 C 25.945312 -44.125 28.648438 -43.546875 30.890625 -42.390625 C 33.128906 -41.234375 34.820312 -39.613281 35.96875 -37.53125 C 37.125 -35.445312 37.703125 -33.023438 37.703125 -30.265625 C 37.703125 -27.515625 37.125 -25.101562 35.96875 -23.03125 C 34.820312 -20.957031 33.128906 -19.34375 30.890625 -18.1875 C 28.648438 -17.03125 25.945312 -16.453125 22.78125 -16.453125 L 14.453125 -16.453125 L 14.453125 0 L 5.734375 0 L 5.734375 -44.125 Z M 21.640625 -23.359375 C 26.492188 -23.359375 28.921875 -25.660156 28.921875 -30.265625 C 28.921875 -34.898438 26.492188 -37.21875 21.640625 -37.21875 L 14.453125 -37.21875 L 14.453125 -23.359375 Z M 21.640625 -23.359375 "/></g></g></g><g fill="#000000" fill-opacity="1"><g transform="translate(577.565744, 756.009376)"><g><path d="M 12.984375 0.640625 C 10.847656 0.640625 8.992188 0.25 7.421875 -0.53125 C 5.859375 -1.320312 4.648438 -2.476562 3.796875 -4 C 2.953125 -5.519531 2.53125 -7.347656 2.53125 -9.484375 C 2.53125 -11.453125 2.953125 -13.101562 3.796875 -14.4375 C 4.648438 -15.78125 5.957031 -16.878906 7.71875 -17.734375 C 9.488281 -18.585938 11.804688 -19.242188 14.671875 -19.703125 C 16.660156 -20.023438 18.171875 -20.378906 19.203125 -20.765625 C 20.242188 -21.148438 20.945312 -21.582031 21.3125 -22.0625 C 21.675781 -22.539062 21.859375 -23.15625 21.859375 -23.90625 C 21.859375 -24.96875 21.484375 -25.78125 20.734375 -26.34375 C 19.992188 -26.90625 18.753906 -27.1875 17.015625 -27.1875 C 15.171875 -27.1875 13.410156 -26.773438 11.734375 -25.953125 C 10.066406 -25.128906 8.617188 -24.046875 7.390625 -22.703125 L 6.796875 -22.703125 L 3.296875 -27.984375 C 4.984375 -29.847656 7.039062 -31.300781 9.46875 -32.34375 C 11.90625 -33.394531 14.5625 -33.921875 17.4375 -33.921875 C 21.851562 -33.921875 25.046875 -32.984375 27.015625 -31.109375 C 28.984375 -29.242188 29.96875 -26.59375 29.96875 -23.15625 L 29.96875 -8.6875 C 29.96875 -7.195312 30.625 -6.453125 31.9375 -6.453125 C 32.4375 -6.453125 32.925781 -6.546875 33.40625 -6.734375 L 33.828125 -6.609375 L 34.4375 -0.78125 C 33.976562 -0.476562 33.332031 -0.234375 32.5 -0.046875 C 31.675781 0.140625 30.773438 0.234375 29.796875 0.234375 C 27.796875 0.234375 26.238281 -0.144531 25.125 -0.90625 C 24.007812 -1.664062 23.210938 -2.863281 22.734375 -4.5 L 22.09375 -4.5625 C 20.457031 -1.09375 17.421875 0.640625 12.984375 0.640625 Z M 15.640625 -5.609375 C 17.566406 -5.609375 19.109375 -6.253906 20.265625 -7.546875 C 21.421875 -8.847656 22 -10.660156 22 -12.984375 L 22 -16.359375 L 21.421875 -16.484375 C 20.921875 -16.078125 20.265625 -15.738281 19.453125 -15.46875 C 18.640625 -15.195312 17.46875 -14.929688 15.9375 -14.671875 C 14.125 -14.367188 12.816406 -13.847656 12.015625 -13.109375 C 11.222656 -12.378906 10.828125 -11.335938 10.828125 -9.984375 C 10.828125 -8.554688 11.25 -7.46875 12.09375 -6.71875 C 12.945312 -5.976562 14.128906 -5.609375 15.640625 -5.609375 Z M 15.640625 -5.609375 "/></g></g></g><g fill="#000000" fill-opacity="1"><g transform="translate(612.661302, 756.009376)"><g><path d="M 4.796875 0 L 4.796875 -33.296875 L 12.921875 -33.296875 L 12.921875 -28.34375 L 13.546875 -28.21875 C 14.359375 -30.070312 15.414062 -31.429688 16.71875 -32.296875 C 18.03125 -33.160156 19.617188 -33.59375 21.484375 -33.59375 C 23.378906 -33.59375 24.820312 -33.269531 25.8125 -32.625 L 24.390625 -25.40625 L 23.75 -25.296875 C 23.207031 -25.515625 22.679688 -25.671875 22.171875 -25.765625 C 21.671875 -25.867188 21.0625 -25.921875 20.34375 -25.921875 C 18.007812 -25.921875 16.226562 -25.097656 15 -23.453125 C 13.769531 -21.816406 13.15625 -19.191406 13.15625 -15.578125 L 13.15625 0 Z M 4.796875 0 "/></g></g></g><g fill="#000000" fill-opacity="1"><g transform="translate(639.186668, 756.009376)"><g><path d="M 22.96875 -7.9375 L 25.140625 -1.75 C 24.234375 -1.007812 23.09375 -0.425781 21.71875 0 C 20.351562 0.425781 18.804688 0.640625 17.078125 0.640625 C 13.484375 0.640625 10.75 -0.335938 8.875 -2.296875 C 7 -4.265625 6.0625 -7.117188 6.0625 -10.859375 L 6.0625 -26.6875 L 1 -26.6875 L 1 -33.328125 L 6.0625 -33.328125 L 6.0625 -39.8125 L 14.421875 -41.171875 L 14.421875 -33.328125 L 23.875 -33.328125 L 23.875 -26.6875 L 14.421875 -26.6875 L 14.421875 -11.46875 C 14.421875 -9.820312 14.765625 -8.617188 15.453125 -7.859375 C 16.140625 -7.109375 17.132812 -6.734375 18.4375 -6.734375 C 19.925781 -6.734375 21.222656 -7.132812 22.328125 -7.9375 Z M 22.96875 -7.9375 "/></g></g></g><g fill="#000000" fill-opacity="1"><g transform="translate(665.048113, 756.009376)"><g><path d="M 15.578125 0.640625 C 13.296875 0.640625 11.207031 0.375 9.3125 -0.15625 C 7.425781 -0.695312 5.8125 -1.429688 4.46875 -2.359375 C 3.132812 -3.296875 2.148438 -4.367188 1.515625 -5.578125 L 6.15625 -10.59375 L 6.796875 -10.59375 C 7.898438 -9.101562 9.207031 -7.984375 10.71875 -7.234375 C 12.226562 -6.492188 13.867188 -6.125 15.640625 -6.125 C 17.265625 -6.125 18.488281 -6.414062 19.3125 -7 C 20.132812 -7.582031 20.546875 -8.414062 20.546875 -9.5 C 20.546875 -10.351562 20.25 -11.066406 19.65625 -11.640625 C 19.0625 -12.210938 18.101562 -12.660156 16.78125 -12.984375 L 12.375 -14.03125 C 9.070312 -14.820312 6.660156 -16.023438 5.140625 -17.640625 C 3.628906 -19.265625 2.875 -21.320312 2.875 -23.8125 C 2.875 -25.882812 3.398438 -27.6875 4.453125 -29.21875 C 5.503906 -30.75 6.988281 -31.914062 8.90625 -32.71875 C 10.832031 -33.519531 13.078125 -33.921875 15.640625 -33.921875 C 18.628906 -33.921875 21.109375 -33.488281 23.078125 -32.625 C 25.054688 -31.757812 26.597656 -30.601562 27.703125 -29.15625 L 23.234375 -24.328125 L 22.640625 -24.328125 C 21.710938 -25.367188 20.671875 -26.128906 19.515625 -26.609375 C 18.359375 -27.097656 17.066406 -27.34375 15.640625 -27.34375 C 12.335938 -27.34375 10.6875 -26.316406 10.6875 -24.265625 C 10.6875 -23.398438 10.992188 -22.695312 11.609375 -22.15625 C 12.222656 -21.613281 13.300781 -21.171875 14.84375 -20.828125 L 18.953125 -19.921875 C 22.335938 -19.191406 24.804688 -18.023438 26.359375 -16.421875 C 27.921875 -14.828125 28.703125 -12.679688 28.703125 -9.984375 C 28.703125 -7.878906 28.175781 -6.019531 27.125 -4.40625 C 26.082031 -2.789062 24.570312 -1.546875 22.59375 -0.671875 C 20.625 0.203125 18.285156 0.640625 15.578125 0.640625 Z M 15.578125 0.640625 "/></g></g></g></svg>